<svg xmlns="http://www.w3.org/2000/svg" viewBox="0 0 940 380.22">
  <g>
    <path d="M164.69,188.28a8.85,8.85,0,0,0-7.75-4.47h0a8.84,8.84,0,0,0-7.75,4.48l-36.65,63.65a7,7,0,0,1-6,3.48H97.33a7,7,0,0,1-6-3.49L86.75,244a7,7,0,0,1,0-7l36.94-63.5A9,9,0,0,0,116,160.06l-8.81,0h0a9.94,9.94,0,0,0-8.6,5l-40.8,70.47a10,10,0,0,0,0,9.95L75.5,276.29a10,10,0,0,0,8.6,5l35.57.05h0a10,10,0,0,0,8.6-5l40.81-70.49a10,10,0,0,0,0-10Z" fill="#1779ff"/>
    <path d="M210.78,181.79l81.4.12h0a10,10,0,0,0,8.6-5l17.84-30.83a10,10,0,0,0,0-9.94L300.9,105.33a10,10,0,0,0-8.6-5l-81.41-.12h0a10,10,0,0,0-8.61,5l-4.4,7.63a9,9,0,0,0,7.75,13.43h0L279,126.2h0a7,7,0,0,1,6,3.49l4.57,7.95a7,7,0,0,1,0,7l-4.58,7.91a7,7,0,0,1-6,3.47h0l-73.42-.25h0a8.94,8.94,0,0,0-7.76,13.4l4.38,7.65A10,10,0,0,0,210.78,181.79Z" fill="#1779ff"/>
    <path d="M91.56,29.38a7,7,0,0,1,6-3.48h0l9.17,0a6.94,6.94,0,0,1,6,3.5l36.47,63.75A8.86,8.86,0,0,0,157,97.68h0a8.85,8.85,0,0,0,7.73-4.45l4.42-7.62a10,10,0,0,0,0-10L128.6,5.05a10,10,0,0,0-8.6-5L84.43,0h0a10,10,0,0,0-8.6,5L58,35.77a10,10,0,0,0,0,9.95l40.6,70.6a10,10,0,0,0,8.61,5H116a9,9,0,0,0,7.74-13.44L87,44.27a7,7,0,0,1,0-7Z" fill="#1779ff"/>
    <path d="M201.3,39.58l5.85-10.14a7,7,0,0,1,6-3.49h0l9.14,0a7,7,0,0,1,6,3.49l4.57,7.95a7,7,0,0,1,0,7L227,54.59A9,9,0,0,0,234.8,68h8.62A10,10,0,0,0,252,63l9.91-17.12a10,10,0,0,0,0-9.94L244.19,5.11a9.93,9.93,0,0,0-8.6-5L200,.06h0a10,10,0,0,0-8.6,5l-9.89,17.09a10,10,0,0,0,0,10l4.33,7.52a8.84,8.84,0,0,0,7.75,4.49h0A8.84,8.84,0,0,0,201.3,39.58Z" fill="#99c7ff"/>
    <path d="M60.78,160.54A8.89,8.89,0,0,0,53,156H41.15a7,7,0,0,1-6-3.48l-4.63-8a7,7,0,0,1,0-7l4.57-8a7,7,0,0,1,6.06-3.51l11.76,0a9,9,0,0,0,7.77-13.51L56.24,105a10,10,0,0,0-8.66-5l-19.84.06a10,10,0,0,0-8.63,5L1.32,136.19a10,10,0,0,0,0,10l18,30.91a10,10,0,0,0,8.63,5h0L47.84,182a10,10,0,0,0,8.61-5l4.33-7.48A8.92,8.92,0,0,0,60.78,160.54Z" fill="#99c7ff"/>
    <path d="M940,262.14v-12a30,30,0,0,0-30-30H810a30,30,0,0,0-30,30v100a30,30,0,0,0,30,30H910a30,30,0,0,0,30-30V338.06a6,6,0,0,0-6-6H912a6,6,0,0,0-6,6v4.08a10,10,0,0,1-10,10H824a10,10,0,0,1-10-10v-84a10,10,0,0,1,10-10h72a10,10,0,0,1,10,10v4a6,6,0,0,0,6,6h22A6,6,0,0,0,940,262.14Z" fill="#181535"/>
    <g>
      <path d="M354,220.14H206a6,6,0,0,0-6,6v16a6,6,0,0,0,6,6h56.87V374.22a6,6,0,0,0,6,6h22.26a6,6,0,0,0,6-6V248.14H354a6,6,0,0,0,6-6v-16A6,6,0,0,0,354,220.14Z" fill="#181535"/>
      <path d="M754,220.14l-148-.08a6,6,0,0,0-6,6V374.14a6,6,0,0,0,6,6H754a6,6,0,0,0,6-6v-16a6,6,0,0,0-6-6H634V314.06H734a6,6,0,0,0,6-6v-16a6,6,0,0,0-6-6H634V248.14H754a6,6,0,0,0,6-6v-16A6,6,0,0,0,754,220.14Z" fill="#181535"/>
      <path d="M554,220.06H532a6,6,0,0,0-6,6v60H434v-60a6,6,0,0,0-6-6H406a6,6,0,0,0-6,6v148a6,6,0,0,0,6,6h22a6,6,0,0,0,6-6v-60h92v60a6,6,0,0,0,6,6h22a6,6,0,0,0,6-6v-148A6,6,0,0,0,554,220.06Z" fill="#181535"/>
    </g>
  </g>
  <g>
    <path d="M481.22,155.39V79.87h30.21q8.07,0,13.06,3.23a19.6,19.6,0,0,1,7.29,8.1,22.83,22.83,0,0,1,2.31,9.86,18.36,18.36,0,0,1-2.86,10.54,13.72,13.72,0,0,1-7.84,5.61v-2.62q7.08,1.47,10.62,6.55a19.49,19.49,0,0,1,3.54,11.38,27,27,0,0,1-2.49,11.91,18.29,18.29,0,0,1-7.58,8q-5.09,2.91-12.8,2.91Zm14.48-46h15.52a10.47,10.47,0,0,0,4.3-.84,6.55,6.55,0,0,0,3-2.59,8.45,8.45,0,0,0,1.1-4.54,8.33,8.33,0,0,0-2.15-5.82,8,8,0,0,0-6.24-2.36H495.7Zm0,32.62h17.51a10.53,10.53,0,0,0,5.14-1.23,8.86,8.86,0,0,0,3.54-3.46,10.34,10.34,0,0,0,1.29-5.27,10.17,10.17,0,0,0-1.1-4.77,8.09,8.09,0,0,0-3.33-3.33,11.35,11.35,0,0,0-5.54-1.24H495.7Z" fill="#bbbfd6"/>
    <path d="M569.12,157.07a22.8,22.8,0,0,1-10.86-2.26,17.93,17.93,0,0,1-6.53-5.71,24.09,24.09,0,0,1-3.33-7.21,36.78,36.78,0,0,1-1.2-6.85c-.14-2.06-.21-3.56-.21-4.51V98.75h14.47V125.5q0,1.94.21,4.95a22.48,22.48,0,0,0,1.31,6.06,11.57,11.57,0,0,0,3.6,5.09q2.49,2,7,2a15,15,0,0,0,3.93-.57,9.86,9.86,0,0,0,3.94-2.23,12,12,0,0,0,3-4.88,25.06,25.06,0,0,0,1.18-8.47l8.18,3.88A29.51,29.51,0,0,1,591.14,144a22.54,22.54,0,0,1-8.2,9.49Q577.45,157.07,569.12,157.07Zm18.35-1.68V136.61h-1.78V98.75h14.37v56.64Z" fill="#bbbfd6"/>
    <path d="M636.87,157q-10.7,0-17.28-4.85a20.22,20.22,0,0,1-8-13.71l14.58-2.2a10.22,10.22,0,0,0,4,6.24,12.8,12.8,0,0,0,7.78,2.25,10.26,10.26,0,0,0,6-1.49A4.84,4.84,0,0,0,646,139a4.11,4.11,0,0,0-.84-2.7,8.73,8.73,0,0,0-3.75-2q-2.91-1-9-2.62a51.22,51.22,0,0,1-11.07-4,14.84,14.84,0,0,1-6-5.27,14.25,14.25,0,0,1-1.83-7.42,16.24,16.24,0,0,1,2.77-9.47,17.91,17.91,0,0,1,7.84-6.19A30.12,30.12,0,0,1,636,97.18a31.82,31.82,0,0,1,11.8,2,20.72,20.72,0,0,1,8.31,5.82,17.44,17.44,0,0,1,3.91,8.92l-14.58,2.62a7.1,7.1,0,0,0-2.73-5,11.73,11.73,0,0,0-6.4-2.15,11.39,11.39,0,0,0-6.32,1,4.11,4.11,0,0,0-2.39,3.77,3.34,3.34,0,0,0,1,2.47,11.91,11.91,0,0,0,4.25,2q3.23,1.05,9.83,2.73a43.11,43.11,0,0,1,10.36,3.91,14.71,14.71,0,0,1,5.69,5.35,14.92,14.92,0,0,1,1.78,7.52q0,8.72-6.29,13.69T636.87,157Z" fill="#bbbfd6"/>
    <path d="M673.17,90.88V78.3h14.26V90.88Zm0,64.51V98.75h14.26v56.64Z" fill="#bbbfd6"/>
    <path d="M703.06,155.39V98.75h12.69v18.77h1.78v37.87Zm38.7,0V128.64q0-1.93-.21-4.95a22.11,22.11,0,0,0-1.31-6.06,11.55,11.55,0,0,0-3.59-5.09q-2.49-2-7-2a15.06,15.06,0,0,0-3.94.57,9.76,9.76,0,0,0-3.93,2.23,11.94,11.94,0,0,0-3,4.85,25.34,25.34,0,0,0-1.18,8.5l-8.18-3.88a29.51,29.51,0,0,1,2.73-12.59,22.56,22.56,0,0,1,8.21-9.49q5.48-3.61,13.82-3.62A22.76,22.76,0,0,1,745,99.33a17.93,17.93,0,0,1,6.53,5.71,23.71,23.71,0,0,1,3.33,7.21A36.18,36.18,0,0,1,756,119.1c.14,2.06.21,3.56.21,4.51v31.78Z" fill="#bbbfd6"/>
    <path d="M795.15,157a30.64,30.64,0,0,1-15.34-3.75,27,27,0,0,1-10.38-10.33,29.92,29.92,0,0,1-3.75-15.08,33.77,33.77,0,0,1,3.67-16.15A26.63,26.63,0,0,1,779.47,101a28.63,28.63,0,0,1,14.84-3.8,26.61,26.61,0,0,1,15.16,4.19,24.64,24.64,0,0,1,9.23,11.8q3,7.6,2.1,17.89H806.69v-5.25q0-8.66-2.75-12.45t-9-3.81q-7.29,0-10.72,4.43t-3.44,13.09q0,7.92,3.44,12.25t10.09,4.32a13.53,13.53,0,0,0,7.19-1.83,11.76,11.76,0,0,0,4.56-5.3l14.26,4.09a25,25,0,0,1-10.09,12.06A27.92,27.92,0,0,1,795.15,157Zm-18.77-25.9v-10.6h37.55v10.6Z" fill="#bbbfd6"/>
    <path d="M854.73,157q-10.71,0-17.28-4.85a20.19,20.19,0,0,1-8-13.71L844,136.2a10.22,10.22,0,0,0,4,6.24,12.8,12.8,0,0,0,7.78,2.25,10.26,10.26,0,0,0,6-1.49,4.84,4.84,0,0,0,2.1-4.17,4.11,4.11,0,0,0-.84-2.7,8.73,8.73,0,0,0-3.75-2q-2.91-1-9-2.62a51.22,51.22,0,0,1-11.07-4,14.84,14.84,0,0,1-6-5.27,14.25,14.25,0,0,1-1.83-7.42,16.17,16.17,0,0,1,2.78-9.47A17.79,17.79,0,0,1,842,99.35a30,30,0,0,1,11.93-2.17,31.82,31.82,0,0,1,11.8,2A20.72,20.72,0,0,1,874,105a17.44,17.44,0,0,1,3.91,8.92l-14.58,2.62a7.1,7.1,0,0,0-2.73-5,11.73,11.73,0,0,0-6.4-2.15,11.39,11.39,0,0,0-6.32,1,4.1,4.1,0,0,0-2.38,3.77,3.33,3.33,0,0,0,1,2.47,11.91,11.91,0,0,0,4.25,2q3.22,1.05,9.83,2.73A43.11,43.11,0,0,1,871,125.42a14.71,14.71,0,0,1,5.69,5.35,14.92,14.92,0,0,1,1.78,7.52q0,8.72-6.29,13.69T854.73,157Z" fill="#bbbfd6"/>
    <path d="M912.1,157q-10.7,0-17.28-4.85a20.23,20.23,0,0,1-8-13.71l14.58-2.2a10.31,10.31,0,0,0,4,6.24,12.84,12.84,0,0,0,7.79,2.25,10.26,10.26,0,0,0,6-1.49,4.84,4.84,0,0,0,2.1-4.17,4.11,4.11,0,0,0-.84-2.7,8.73,8.73,0,0,0-3.75-2q-2.91-1-9-2.62a51.42,51.42,0,0,1-11.07-4,14.91,14.91,0,0,1-6-5.27,14.25,14.25,0,0,1-1.83-7.42,16.24,16.24,0,0,1,2.78-9.47,17.85,17.85,0,0,1,7.84-6.19,30,30,0,0,1,11.93-2.17,31.82,31.82,0,0,1,11.8,2,20.59,20.59,0,0,1,8.31,5.82,17.36,17.36,0,0,1,3.91,8.92l-14.58,2.62a7,7,0,0,0-2.73-5,11.7,11.7,0,0,0-6.39-2.15,11.37,11.37,0,0,0-6.32,1,4.09,4.09,0,0,0-2.39,3.77,3.33,3.33,0,0,0,1,2.47,11.91,11.91,0,0,0,4.25,2q3.23,1.05,9.83,2.73a42.94,42.94,0,0,1,10.36,3.91,14.64,14.64,0,0,1,5.69,5.35,14.92,14.92,0,0,1,1.78,7.52q0,8.72-6.29,13.69T912.1,157Z" fill="#bbbfd6"/>
  </g>
</svg>
