<svg xmlns="http://www.w3.org/2000/svg" viewBox="0 0 940 380.22">
  <g>
    <path d="M164.69,188.28a8.85,8.85,0,0,0-7.75-4.47h0a8.84,8.84,0,0,0-7.75,4.48l-36.65,63.65a7,7,0,0,1-6,3.48H97.33a7,7,0,0,1-6-3.49L86.75,244a7,7,0,0,1,0-7l36.94-63.5A9,9,0,0,0,116,160.06l-8.81,0h0a9.94,9.94,0,0,0-8.6,5l-40.8,70.47a10,10,0,0,0,0,9.95L75.5,276.29a10,10,0,0,0,8.6,5l35.57.05h0a10,10,0,0,0,8.6-5l40.81-70.49a10,10,0,0,0,0-10Z" fill="#1779ff"/>
    <path d="M210.78,181.79l81.4.12h0a10,10,0,0,0,8.6-5l17.84-30.83a10,10,0,0,0,0-9.94L300.9,105.33a10,10,0,0,0-8.6-5l-81.41-.12h0a10,10,0,0,0-8.61,5l-4.4,7.63a9,9,0,0,0,7.75,13.43h0L279,126.2h0a7,7,0,0,1,6,3.49l4.57,7.95a7,7,0,0,1,0,7l-4.58,7.91a7,7,0,0,1-6,3.47h0l-73.42-.25h0a8.94,8.94,0,0,0-7.76,13.4l4.38,7.65A10,10,0,0,0,210.78,181.79Z" fill="#1779ff"/>
    <path d="M91.56,29.38a7,7,0,0,1,6-3.48h0l9.17,0a6.94,6.94,0,0,1,6,3.5l36.47,63.75A8.86,8.86,0,0,0,157,97.68h0a8.85,8.85,0,0,0,7.73-4.45l4.42-7.62a10,10,0,0,0,0-10L128.6,5.05a10,10,0,0,0-8.6-5L84.43,0h0a10,10,0,0,0-8.6,5L58,35.77a10,10,0,0,0,0,9.95l40.6,70.6a10,10,0,0,0,8.61,5H116a9,9,0,0,0,7.74-13.44L87,44.27a7,7,0,0,1,0-7Z" fill="#1779ff"/>
    <path d="M201.3,39.58l5.85-10.14a7,7,0,0,1,6-3.49h0l9.14,0a7,7,0,0,1,6,3.49l4.57,7.95a7,7,0,0,1,0,7L227,54.59A9,9,0,0,0,234.8,68h8.62A10,10,0,0,0,252,63l9.91-17.12a10,10,0,0,0,0-9.94L244.19,5.11a9.93,9.93,0,0,0-8.6-5L200,.06h0a10,10,0,0,0-8.6,5l-9.89,17.09a10,10,0,0,0,0,10l4.33,7.52a8.84,8.84,0,0,0,7.75,4.49h0A8.84,8.84,0,0,0,201.3,39.58Z" fill="#99c7ff"/>
    <path d="M60.78,160.54A8.89,8.89,0,0,0,53,156H41.15a7,7,0,0,1-6-3.48l-4.63-8a7,7,0,0,1,0-7l4.57-8a7,7,0,0,1,6.06-3.51l11.76,0a9,9,0,0,0,7.77-13.51L56.24,105a10,10,0,0,0-8.66-5l-19.84.06a10,10,0,0,0-8.63,5L1.32,136.19a10,10,0,0,0,0,10l18,30.91a10,10,0,0,0,8.63,5h0L47.84,182a10,10,0,0,0,8.61-5l4.33-7.48A8.92,8.92,0,0,0,60.78,160.54Z" fill="#99c7ff"/>
    <path d="M940,262.14v-12a30,30,0,0,0-30-30H810a30,30,0,0,0-30,30v100a30,30,0,0,0,30,30H910a30,30,0,0,0,30-30V338.06a6,6,0,0,0-6-6H912a6,6,0,0,0-6,6v4.08a10,10,0,0,1-10,10H824a10,10,0,0,1-10-10v-84a10,10,0,0,1,10-10h72a10,10,0,0,1,10,10v4a6,6,0,0,0,6,6h22A6,6,0,0,0,940,262.14Z" fill="#181535"/>
    <g>
      <path d="M354,220.14H206a6,6,0,0,0-6,6v16a6,6,0,0,0,6,6h56.87V374.22a6,6,0,0,0,6,6h22.26a6,6,0,0,0,6-6V248.14H354a6,6,0,0,0,6-6v-16A6,6,0,0,0,354,220.14Z" fill="#181535"/>
      <path d="M754,220.14l-148-.08a6,6,0,0,0-6,6V374.14a6,6,0,0,0,6,6H754a6,6,0,0,0,6-6v-16a6,6,0,0,0-6-6H634V314.06H734a6,6,0,0,0,6-6v-16a6,6,0,0,0-6-6H634V248.14H754a6,6,0,0,0,6-6v-16A6,6,0,0,0,754,220.14Z" fill="#181535"/>
      <path d="M554,220.06H532a6,6,0,0,0-6,6v60H434v-60a6,6,0,0,0-6-6H406a6,6,0,0,0-6,6v148a6,6,0,0,0,6,6h22a6,6,0,0,0,6-6v-60h92v60a6,6,0,0,0,6,6h22a6,6,0,0,0,6-6v-148A6,6,0,0,0,554,220.06Z" fill="#181535"/>
    </g>
  </g>
  <g>
    <path d="M556.64,155.39V79.87h31.88c.74,0,1.73,0,3,.08a23.94,23.94,0,0,1,3.33.34,23.28,23.28,0,0,1,11.09,4.46,20.18,20.18,0,0,1,6.37,8.57,33.19,33.19,0,0,1,0,23,20.46,20.46,0,0,1-6.4,8.58,23.4,23.4,0,0,1-11,4.46c-1,.14-2.1.24-3.36.31s-2.24.11-2.94.11H570.9v25.59Zm14.26-38.91h17c.73,0,1.53,0,2.41-.11a12.33,12.33,0,0,0,2.41-.42,8.61,8.61,0,0,0,4.46-2.65,10.45,10.45,0,0,0,2.17-4.14,15.64,15.64,0,0,0,0-8.65,10.49,10.49,0,0,0-2.17-4.15,8.68,8.68,0,0,0-4.46-2.65,13.13,13.13,0,0,0-2.41-.42c-.88-.06-1.68-.1-2.41-.1h-17Z" fill="#0057b2"/>
    <path d="M639.5,157a21.05,21.05,0,0,1-10.3-2.33,16,16,0,0,1-6.4-6.24,17.46,17.46,0,0,1-2.18-8.63,20.34,20.34,0,0,1,1.21-7.18,14.65,14.65,0,0,1,3.9-5.75,21.67,21.67,0,0,1,7.27-4.17,52.89,52.89,0,0,1,7.5-2c2.9-.6,6.19-1.16,9.86-1.71l12.11-1.8-5.14,2.83c0-3.36-.8-5.82-2.41-7.4s-4.3-2.36-8.08-2.36a16.12,16.12,0,0,0-6.55,1.52,8.79,8.79,0,0,0-4.78,5.41l-12.9-4.1a22,22,0,0,1,8.08-11.43q5.92-4.41,16.15-4.4a36.1,36.1,0,0,1,13.32,2.3,16.63,16.63,0,0,1,8.81,8,16.83,16.83,0,0,1,2,6.29q.31,3.15.31,7v34.61H658.8V143.75l1.78,2.41a26.94,26.94,0,0,1-8.94,8.26A25.73,25.73,0,0,1,639.5,157Zm3-11.22a14.39,14.39,0,0,0,6.64-1.39,14.87,14.87,0,0,0,4.3-3.17,13.93,13.93,0,0,0,2.17-3,14.24,14.24,0,0,0,1.29-5.38c.12-2,.18-3.75.18-5.11l4.2,1q-6.35,1-10.28,1.75t-6.35,1.29a35.38,35.38,0,0,0-4.25,1.26,14.83,14.83,0,0,0-3.38,1.81,6.43,6.43,0,0,0-1.89,2.12,5.5,5.5,0,0,0-.6,2.57,5.62,5.62,0,0,0,1,3.33,6.12,6.12,0,0,0,2.75,2.13A11.15,11.15,0,0,0,642.54,145.74Z" fill="#0057b2"/>
    <path d="M684.92,155.39V98.75H697.5v13.84l-1.36-1.78a20.59,20.59,0,0,1,2.94-5.35,15.28,15.28,0,0,1,4.51-4,18.21,18.21,0,0,1,4.45-2,23.6,23.6,0,0,1,5-.89,26.79,26.79,0,0,1,5.14.13v13.32a14.86,14.86,0,0,0-5.48-.5,15.83,15.83,0,0,0-5.64,1.44,12.57,12.57,0,0,0-6.87,7.58,17.79,17.79,0,0,0-.89,5.85v28.95Z" fill="#0057b2"/>
    <path d="M721.84,109.76v-11h40.27v11Zm40.27,45.63a55.42,55.42,0,0,1-11.51,1,27.56,27.56,0,0,1-10.07-2,13.5,13.5,0,0,1-6.74-6,17.37,17.37,0,0,1-2.2-7.89q-.11-4-.1-9.1V83h14.26v47.51c0,2.2,0,4.19.08,5.95a8.34,8.34,0,0,0,1.07,4.23,7.21,7.21,0,0,0,6,3.25,47.41,47.41,0,0,0,9.17-.42Z" fill="#0057b2"/>
    <path d="M774.59,155.39V98.75h12.7v18.77h1.78v37.87Zm38.71,0V128.64q0-1.93-.21-4.95a22.48,22.48,0,0,0-1.31-6.06,11.66,11.66,0,0,0-3.6-5.09q-2.49-2-7-2a15,15,0,0,0-3.93.57,9.86,9.86,0,0,0-3.94,2.23,12,12,0,0,0-3,4.85,25.09,25.09,0,0,0-1.18,8.5l-8.18-3.88a29.65,29.65,0,0,1,2.72-12.59,22.63,22.63,0,0,1,8.21-9.49q5.48-3.61,13.82-3.62a22.8,22.8,0,0,1,10.86,2.26A18,18,0,0,1,823,105a24.09,24.09,0,0,1,3.33,7.21,36.92,36.92,0,0,1,1.2,6.85c.14,2.06.21,3.56.21,4.51v31.78Z" fill="#0057b2"/>
    <path d="M866.68,157a30.67,30.67,0,0,1-15.34-3.75A27,27,0,0,1,841,142.88a29.92,29.92,0,0,1-3.75-15.08,33.77,33.77,0,0,1,3.67-16.15A26.7,26.7,0,0,1,851,101a28.64,28.64,0,0,1,14.85-3.8A26.57,26.57,0,0,1,881,101.37a24.64,24.64,0,0,1,9.23,11.8q3,7.6,2.1,17.89H878.22v-5.25q0-8.66-2.75-12.45t-9-3.81q-7.29,0-10.73,4.43t-3.43,13.09q0,7.92,3.43,12.25t10.1,4.32a13.49,13.49,0,0,0,7.18-1.83,11.76,11.76,0,0,0,4.56-5.3l14.27,4.09a25,25,0,0,1-10.1,12.06A27.9,27.9,0,0,1,866.68,157Zm-18.77-25.9v-10.6h37.55v10.6Z" fill="#0057b2"/>
    <path d="M904.13,155.39V98.75h12.59v13.84l-1.37-1.78a21.19,21.19,0,0,1,2.94-5.35,15.41,15.41,0,0,1,4.51-4,18.11,18.11,0,0,1,4.46-2,23.62,23.62,0,0,1,5-.89,26.77,26.77,0,0,1,5.14.13v13.32a14.84,14.84,0,0,0-5.48-.5,15.83,15.83,0,0,0-5.64,1.44,13,13,0,0,0-4.25,3.07,12.9,12.9,0,0,0-2.62,4.51,18.06,18.06,0,0,0-.89,5.85v28.95Z" fill="#0057b2"/>
  </g>
</svg>
