<svg xmlns="http://www.w3.org/2000/svg" viewBox="0 0 280.09 320.09">
  <g>
    <g>
      <path d="M175.39,203.5l-7.68-4.42a8,8,0,0,0-12,7l.17,73.85a8,8,0,0,1-4,6.94l-8,4.62a8,8,0,0,1-8,0l-8-4.6a8,8,0,0,1-4-7L124.1,206a8,8,0,0,0-12-6.95l-7.69,4.42a9,9,0,0,0-4.51,7.8v81.88a9,9,0,0,0,4.5,7.8l31,17.9a9,9,0,0,0,9,0l31-17.9a9,9,0,0,0,4.5-7.79V211.3A9,9,0,0,0,175.39,203.5Z" fill="#fff"/>
      <path d="M160,107.88l0,8.86a8,8,0,0,0,12,6.9l63.87-37.07a8,8,0,0,1,8,0l8,4.61a8,8,0,0,1,4,6.93v9.2a8,8,0,0,1-4,6.93l-64,36.81a8,8,0,0,0,0,13.85l7.67,4.45a9,9,0,0,0,9,0l70.92-40.94a9,9,0,0,0,4.5-7.8V84.8a9,9,0,0,0-4.5-7.8l-31-17.88a9,9,0,0,0-9,0l-70.92,40.95A9,9,0,0,0,160,107.88Z" fill="#fff"/>
      <path d="M119.92,107.88l0,8.86a8,8,0,0,1-12,6.9L44,86.57a8,8,0,0,0-8,0l-8,4.61a8,8,0,0,0-4,6.93v9.2a8,8,0,0,0,4,6.93l64,36.81a8,8,0,0,1,0,13.85l-7.67,4.45a9,9,0,0,1-9,0L4.5,128.4A9,9,0,0,1,0,120.6V84.8A9,9,0,0,1,4.51,77l31-17.88a9,9,0,0,1,9,0l70.92,40.95A9,9,0,0,1,119.92,107.88Z" fill="#fff"/>
    </g>
    <g>
      <path d="M175.43,54.56,168,58.91a8,8,0,0,1-12-6.88l0-11.83a8,8,0,0,0-4-6.94l-8-4.61a8,8,0,0,0-8,0l-8,4.6a8,8,0,0,0-4,6.94L124,52a8,8,0,0,1-12,6.94l-7.55-4.36a9,9,0,0,1-4.5-7.79V26.9a9,9,0,0,1,4.5-7.8l31-17.89a9,9,0,0,1,9,0l31,17.89a9,9,0,0,1,4.5,7.8V46.78A9,9,0,0,1,175.43,54.56Z" fill="#fff"/>
      <path d="M213.69,243v-8.65a8,8,0,0,1,12-6.92l10.24,5.92a8,8,0,0,0,8,0l8-4.58a8,8,0,0,0,4-6.91l0-9.2a8,8,0,0,0-4-6.95l-10.19-5.91A8,8,0,0,1,241.9,186l7.57-4.33a9,9,0,0,1,9,0l17.16,10a9,9,0,0,1,4.46,7.82l-.16,35.81a9,9,0,0,1-4.53,7.77l-31.07,17.75a9,9,0,0,1-9,0l-17.18-10A9,9,0,0,1,213.69,243Z" fill="#fff"/>
      <path d="M66.4,243v-8.65a8,8,0,0,0-12-6.92l-10.24,5.92a8,8,0,0,1-8,0l-8-4.58a8,8,0,0,1-4-6.91l0-9.2a8,8,0,0,1,4-6.95l10.18-5.91A8,8,0,0,0,38.19,186l-7.57-4.33a9,9,0,0,0-9,0l-17.15,10A9,9,0,0,0,0,199.49L.16,235.3a9,9,0,0,0,4.54,7.77l31.06,17.75a9,9,0,0,0,9,0l17.18-10A9,9,0,0,0,66.4,243Z" fill="#fff"/>
    </g>
  </g>
</svg>
