<svg xmlns="http://www.w3.org/2000/svg" viewBox="0 0 940 380.22">
  <g>
    <path d="M164.69,188.28a8.85,8.85,0,0,0-7.75-4.47h0a8.84,8.84,0,0,0-7.75,4.48l-36.65,63.65a7,7,0,0,1-6,3.48H97.33a7,7,0,0,1-6-3.49L86.75,244a7,7,0,0,1,0-7l36.94-63.5A9,9,0,0,0,116,160.06l-8.81,0h0a9.94,9.94,0,0,0-8.6,5l-40.8,70.47a10,10,0,0,0,0,9.95L75.5,276.29a10,10,0,0,0,8.6,5l35.57.05h0a10,10,0,0,0,8.6-5l40.81-70.49a10,10,0,0,0,0-10Z" fill="#1779ff"/>
    <path d="M210.78,181.79l81.4.12h0a10,10,0,0,0,8.6-5l17.84-30.83a10,10,0,0,0,0-9.94L300.9,105.33a10,10,0,0,0-8.6-5l-81.41-.12h0a10,10,0,0,0-8.61,5l-4.4,7.63a9,9,0,0,0,7.75,13.43h0L279,126.2h0a7,7,0,0,1,6,3.49l4.57,7.95a7,7,0,0,1,0,7l-4.58,7.91a7,7,0,0,1-6,3.47h0l-73.42-.25h0a8.94,8.94,0,0,0-7.76,13.4l4.38,7.65A10,10,0,0,0,210.78,181.79Z" fill="#1779ff"/>
    <path d="M91.56,29.38a7,7,0,0,1,6-3.48h0l9.17,0a6.94,6.94,0,0,1,6,3.5l36.47,63.75A8.86,8.86,0,0,0,157,97.68h0a8.85,8.85,0,0,0,7.73-4.45l4.42-7.62a10,10,0,0,0,0-10L128.6,5.05a10,10,0,0,0-8.6-5L84.43,0h0a10,10,0,0,0-8.6,5L58,35.77a10,10,0,0,0,0,9.95l40.6,70.6a10,10,0,0,0,8.61,5H116a9,9,0,0,0,7.74-13.44L87,44.27a7,7,0,0,1,0-7Z" fill="#1779ff"/>
    <path d="M201.3,39.58l5.85-10.14a7,7,0,0,1,6-3.49h0l9.14,0a7,7,0,0,1,6,3.49l4.57,7.95a7,7,0,0,1,0,7L227,54.59A9,9,0,0,0,234.8,68h8.62A10,10,0,0,0,252,63l9.91-17.12a10,10,0,0,0,0-9.94L244.19,5.11a9.93,9.93,0,0,0-8.6-5L200,.06h0a10,10,0,0,0-8.6,5l-9.89,17.09a10,10,0,0,0,0,10l4.33,7.52a8.84,8.84,0,0,0,7.75,4.49h0A8.84,8.84,0,0,0,201.3,39.58Z" fill="#99c7ff"/>
    <path d="M60.78,160.54A8.89,8.89,0,0,0,53,156H41.15a7,7,0,0,1-6-3.48l-4.63-8a7,7,0,0,1,0-7l4.57-8a7,7,0,0,1,6.06-3.51l11.76,0a9,9,0,0,0,7.77-13.51L56.24,105a10,10,0,0,0-8.66-5l-19.84.06a10,10,0,0,0-8.63,5L1.32,136.19a10,10,0,0,0,0,10l18,30.91a10,10,0,0,0,8.63,5h0L47.84,182a10,10,0,0,0,8.61-5l4.33-7.48A8.92,8.92,0,0,0,60.78,160.54Z" fill="#99c7ff"/>
    <path d="M940,262.14v-12a30,30,0,0,0-30-30H810a30,30,0,0,0-30,30v100a30,30,0,0,0,30,30H910a30,30,0,0,0,30-30V338.06a6,6,0,0,0-6-6H912a6,6,0,0,0-6,6v4.08a10,10,0,0,1-10,10H824a10,10,0,0,1-10-10v-84a10,10,0,0,1,10-10h72a10,10,0,0,1,10,10v4a6,6,0,0,0,6,6h22A6,6,0,0,0,940,262.14Z" fill="#fff"/>
    <g>
      <path d="M354,220.14H206a6,6,0,0,0-6,6v16a6,6,0,0,0,6,6h56.87V374.22a6,6,0,0,0,6,6h22.26a6,6,0,0,0,6-6V248.14H354a6,6,0,0,0,6-6v-16A6,6,0,0,0,354,220.14Z" fill="#fff"/>
      <path d="M754,220.14l-148-.08a6,6,0,0,0-6,6V374.14a6,6,0,0,0,6,6H754a6,6,0,0,0,6-6v-16a6,6,0,0,0-6-6H634V314.06H734a6,6,0,0,0,6-6v-16a6,6,0,0,0-6-6H634V248.14H754a6,6,0,0,0,6-6v-16A6,6,0,0,0,754,220.14Z" fill="#fff"/>
      <path d="M554,220.06H532a6,6,0,0,0-6,6v60H434v-60a6,6,0,0,0-6-6H406a6,6,0,0,0-6,6v148a6,6,0,0,0,6,6h22a6,6,0,0,0,6-6v-60h92v60a6,6,0,0,0,6,6h22a6,6,0,0,0,6-6v-148A6,6,0,0,0,554,220.06Z" fill="#fff"/>
    </g>
  </g>
</svg>
