<svg xmlns="http://www.w3.org/2000/svg" viewBox="0 0 940 380.22">
  <g>
    <path d="M940,262.14v-12a30,30,0,0,0-30-30H810a30,30,0,0,0-30,30v100a30,30,0,0,0,30,30H910a30,30,0,0,0,30-30V338.06a6,6,0,0,0-6-6H912a6,6,0,0,0-6,6v4.08a10,10,0,0,1-10,10H824a10,10,0,0,1-10-10v-84a10,10,0,0,1,10-10h72a10,10,0,0,1,10,10v4a6,6,0,0,0,6,6h22A6,6,0,0,0,940,262.14Z" fill="#fff"/>
    <g>
      <path d="M354,220.14H206a6,6,0,0,0-6,6v16a6,6,0,0,0,6,6h56.87V374.22a6,6,0,0,0,6,6h22.26a6,6,0,0,0,6-6V248.14H354a6,6,0,0,0,6-6v-16A6,6,0,0,0,354,220.14Z" fill="#fff"/>
      <path d="M754,220.14l-148-.08a6,6,0,0,0-6,6V374.14a6,6,0,0,0,6,6H754a6,6,0,0,0,6-6v-16a6,6,0,0,0-6-6H634V314.06H734a6,6,0,0,0,6-6v-16a6,6,0,0,0-6-6H634V248.14H754a6,6,0,0,0,6-6v-16A6,6,0,0,0,754,220.14Z" fill="#fff"/>
      <path d="M554,220.06H532a6,6,0,0,0-6,6v60H434v-60a6,6,0,0,0-6-6H406a6,6,0,0,0-6,6v148a6,6,0,0,0,6,6h22a6,6,0,0,0,6-6v-60h92v60a6,6,0,0,0,6,6h22a6,6,0,0,0,6-6v-148A6,6,0,0,0,554,220.06Z" fill="#fff"/>
    </g>
  </g>
  <g opacity="0.5">
    <path d="M449.25,155.39V93.19H425.44V79.87h61.89V93.19H463.52v62.2Z" fill="#fff"/>
    <path d="M495.61,155.39V79.87H508.3v38.81h1.79v36.71Zm38.71,0V128.64q0-1.93-.21-4.95a22.48,22.48,0,0,0-1.31-6.06,11.66,11.66,0,0,0-3.6-5.09q-2.49-2-7.05-2a15,15,0,0,0-3.93.57,9.86,9.86,0,0,0-3.94,2.23,11.93,11.93,0,0,0-3,4.85,25.09,25.09,0,0,0-1.18,8.5l-8.18-3.88a29.5,29.5,0,0,1,2.72-12.59,22.63,22.63,0,0,1,8.21-9.49q5.48-3.61,13.82-3.62a22.8,22.8,0,0,1,10.86,2.26A17.89,17.89,0,0,1,544,105a23.71,23.71,0,0,1,3.33,7.21,36.18,36.18,0,0,1,1.21,6.85c.14,2.06.21,3.56.21,4.51v31.78Z" fill="#fff"/>
    <path d="M588.75,157a30.67,30.67,0,0,1-15.34-3.75A27,27,0,0,1,563,142.88a29.92,29.92,0,0,1-3.75-15.08A33.77,33.77,0,0,1,563,111.65,26.7,26.7,0,0,1,573.07,101a28.63,28.63,0,0,1,14.84-3.8,26.58,26.58,0,0,1,15.16,4.19,24.64,24.64,0,0,1,9.23,11.8q3,7.6,2.1,17.89H600.29v-5.25q0-8.66-2.75-12.45t-9-3.81q-7.29,0-10.72,4.43t-3.44,13.09q0,7.92,3.44,12.25t10.09,4.32a13.53,13.53,0,0,0,7.19-1.83,11.76,11.76,0,0,0,4.56-5.3l14.27,4.09a25.07,25.07,0,0,1-10.1,12.06A27.92,27.92,0,0,1,588.75,157ZM570,131.06v-10.6h37.55v10.6Z" fill="#fff"/>
    <path d="M626.2,155.39V98.75h12.58V112.6l-1.36-1.79a20.75,20.75,0,0,1,2.94-5.35,15.42,15.42,0,0,1,4.51-4,18.11,18.11,0,0,1,4.46-2,23.4,23.4,0,0,1,5-.89,26.79,26.79,0,0,1,5.14.13v13.32a14.86,14.86,0,0,0-5.48-.5,15.63,15.63,0,0,0-5.64,1.45,12.77,12.77,0,0,0-4.25,3.06,12.9,12.9,0,0,0-2.62,4.51,17.79,17.79,0,0,0-.89,5.85v28.95Z" fill="#fff"/>
    <path d="M684.09,157a21,21,0,0,1-10.3-2.33,16,16,0,0,1-6.4-6.24,17.46,17.46,0,0,1-2.18-8.63,20.34,20.34,0,0,1,1.21-7.18,14.68,14.68,0,0,1,3.91-5.75,21.61,21.61,0,0,1,7.26-4.17,53.65,53.65,0,0,1,7.5-2c2.9-.6,6.19-1.16,9.86-1.71l12.11-1.8-5.13,2.83c0-3.36-.81-5.82-2.42-7.4s-4.3-2.36-8.07-2.36a16.13,16.13,0,0,0-6.56,1.52,8.8,8.8,0,0,0-4.77,5.41L667.21,113a21.87,21.87,0,0,1,8.07-11.44q5.93-4.39,16.16-4.4a36.14,36.14,0,0,1,13.32,2.3,16.63,16.63,0,0,1,8.81,8,16.81,16.81,0,0,1,2,6.29q.32,3.15.32,7v34.61H703.39V143.75l1.79,2.41a27.13,27.13,0,0,1-8.94,8.26Q691.44,157,684.09,157Zm3-11.22a14.32,14.32,0,0,0,6.63-1.39,14.87,14.87,0,0,0,4.3-3.17,14,14,0,0,0,2.18-3,14.43,14.43,0,0,0,1.28-5.38c.12-2,.19-3.75.19-5.11l4.19,1q-6.35,1-10.28,1.76c-2.62.47-4.74.9-6.34,1.28a38.79,38.79,0,0,0-4.25,1.26,14.41,14.41,0,0,0-3.38,1.81,6.41,6.41,0,0,0-1.89,2.12,5.39,5.39,0,0,0-.61,2.57,5.69,5.69,0,0,0,1,3.33,6.09,6.09,0,0,0,2.76,2.13A11.11,11.11,0,0,0,687.14,145.74Z" fill="#fff"/>
    <path d="M729.41,180.56V98.75H742v38.81h1.78v43Zm27.9-23.6q-8.44,0-14.11-3.93a24,24,0,0,1-8.52-10.7,42.35,42.35,0,0,1,0-30.52,24.38,24.38,0,0,1,8.34-10.7,22.78,22.78,0,0,1,13.58-3.93,25.56,25.56,0,0,1,14.16,3.88,26.11,26.11,0,0,1,9.36,10.62,34.28,34.28,0,0,1,3.33,15.39,34.63,34.63,0,0,1-3.27,15.26A26.47,26.47,0,0,1,771,153,24,24,0,0,1,757.31,157ZM755,144.27a11.86,11.86,0,0,0,7.55-2.31,13.43,13.43,0,0,0,4.35-6.21,25.17,25.17,0,0,0,1.42-8.68,24.35,24.35,0,0,0-1.47-8.63,13.71,13.71,0,0,0-4.54-6.24,12.59,12.59,0,0,0-7.84-2.33,11.41,11.41,0,0,0-7.21,2.15,12.17,12.17,0,0,0-4,6,32.92,32.92,0,0,0,0,18,11.83,11.83,0,0,0,4.12,6A12.34,12.34,0,0,0,755,144.27Z" fill="#fff"/>
    <path d="M796,90.88V78.3h14.26V90.88Zm0,64.51V98.75h14.26v56.64Z" fill="#fff"/>
    <path d="M852.33,157A30.67,30.67,0,0,1,837,153.21a27,27,0,0,1-10.38-10.33,29.92,29.92,0,0,1-3.75-15.08,33.77,33.77,0,0,1,3.67-16.15A26.7,26.7,0,0,1,836.65,101a28.63,28.63,0,0,1,14.84-3.8,26.58,26.58,0,0,1,15.16,4.19,24.64,24.64,0,0,1,9.23,11.8q3,7.6,2.1,17.89H863.87v-5.25q0-8.66-2.75-12.45t-9-3.81q-7.29,0-10.72,4.43T838,127.07q0,7.92,3.44,12.25t10.09,4.32a13.5,13.5,0,0,0,7.19-1.83,11.76,11.76,0,0,0,4.56-5.3l14.27,4.09a25.07,25.07,0,0,1-10.1,12.06A27.92,27.92,0,0,1,852.33,157Zm-18.77-25.9v-10.6h37.55v10.6Z" fill="#fff"/>
    <path d="M911.91,157q-10.7,0-17.28-4.85a20.23,20.23,0,0,1-8-13.71l14.58-2.2a10.22,10.22,0,0,0,4,6.24,12.84,12.84,0,0,0,7.79,2.25,10.28,10.28,0,0,0,6-1.49A4.83,4.83,0,0,0,921,139a4.06,4.06,0,0,0-.84-2.7,8.6,8.6,0,0,0-3.75-2c-1.93-.67-5-1.54-9-2.62a51.42,51.42,0,0,1-11.07-4,14.91,14.91,0,0,1-6-5.27,14.25,14.25,0,0,1-1.83-7.42,16.17,16.17,0,0,1,2.78-9.47,17.85,17.85,0,0,1,7.84-6.19,30,30,0,0,1,11.93-2.17,31.82,31.82,0,0,1,11.8,2,20.59,20.59,0,0,1,8.31,5.82,17.36,17.36,0,0,1,3.91,8.92l-14.58,2.62a7,7,0,0,0-2.73-5,11.71,11.71,0,0,0-6.4-2.15,11.35,11.35,0,0,0-6.31,1,4.09,4.09,0,0,0-2.39,3.77,3.33,3.33,0,0,0,1,2.47,11.91,11.91,0,0,0,4.25,2q3.22,1.05,9.83,2.73a42.94,42.94,0,0,1,10.36,3.91,14.64,14.64,0,0,1,5.69,5.35,14.92,14.92,0,0,1,1.78,7.52q0,8.72-6.29,13.69T911.91,157Z" fill="#fff"/>
  </g>
  <g>
    <g opacity="0.8">
      <path d="M164.69,188.28a8.85,8.85,0,0,0-7.75-4.47h0a8.84,8.84,0,0,0-7.75,4.48l-36.65,63.65a7,7,0,0,1-6,3.48H97.33a7,7,0,0,1-6-3.49L86.75,244a7,7,0,0,1,0-7l36.94-63.5A9,9,0,0,0,116,160.06l-8.81,0h0a9.94,9.94,0,0,0-8.6,5l-40.8,70.47a10,10,0,0,0,0,9.95L75.5,276.29a10,10,0,0,0,8.6,5l35.57.05h0a10,10,0,0,0,8.6-5l40.81-70.49a10,10,0,0,0,0-10Z" fill="#fff"/>
      <path d="M210.78,181.79l81.4.12h0a10,10,0,0,0,8.6-5l17.84-30.83a10,10,0,0,0,0-9.94L300.9,105.33a10,10,0,0,0-8.6-5l-81.41-.12h0a10,10,0,0,0-8.61,5l-4.4,7.63a9,9,0,0,0,7.75,13.43h0L279,126.2h0a7,7,0,0,1,6,3.49l4.57,7.95a7,7,0,0,1,0,7l-4.58,7.91a7,7,0,0,1-6,3.47h0l-73.42-.25h0a8.94,8.94,0,0,0-7.76,13.4l4.38,7.65A10,10,0,0,0,210.78,181.79Z" fill="#fff"/>
      <path d="M91.56,29.38a7,7,0,0,1,6-3.48h0l9.17,0a6.94,6.94,0,0,1,6,3.5l36.47,63.75A8.86,8.86,0,0,0,157,97.68h0a8.85,8.85,0,0,0,7.73-4.45l4.42-7.62a10,10,0,0,0,0-10L128.6,5.05a10,10,0,0,0-8.6-5L84.43,0h0a10,10,0,0,0-8.6,5L58,35.77a10,10,0,0,0,0,9.95l40.6,70.6a10,10,0,0,0,8.61,5H116a9,9,0,0,0,7.74-13.44L87,44.27a7,7,0,0,1,0-7Z" fill="#fff"/>
    </g>
    <g opacity="0.5">
      <path d="M201.3,39.58l5.85-10.14a7,7,0,0,1,6-3.49h0l9.14,0a7,7,0,0,1,6,3.49l4.57,7.95a7,7,0,0,1,0,7L227,54.59A9,9,0,0,0,234.8,68h8.62A10,10,0,0,0,252,63l9.91-17.12a10,10,0,0,0,0-9.94L244.19,5.11a9.93,9.93,0,0,0-8.6-5L200,.06h0a10,10,0,0,0-8.6,5l-9.89,17.09a10,10,0,0,0,0,10l4.33,7.52a8.84,8.84,0,0,0,7.75,4.49h0A8.84,8.84,0,0,0,201.3,39.58Z" fill="#fff"/>
      <path d="M60.78,160.54A8.89,8.89,0,0,0,53,156H41.15a7,7,0,0,1-6-3.48l-4.63-8a7,7,0,0,1,0-7l4.57-8a7,7,0,0,1,6.06-3.51l11.76,0a9,9,0,0,0,7.77-13.51L56.24,105a10,10,0,0,0-8.66-5l-19.84.06a10,10,0,0,0-8.63,5L1.32,136.19a10,10,0,0,0,0,10l18,30.91a10,10,0,0,0,8.63,5h0L47.84,182a10,10,0,0,0,8.61-5l4.33-7.48A8.92,8.92,0,0,0,60.78,160.54Z" fill="#fff"/>
    </g>
  </g>
</svg>
