<?xml version="1.0" encoding="utf-8"?>
<!-- Generator: Adobe Illustrator 25.3.1, SVG Export Plug-In . SVG Version: 6.00 Build 0)  -->
<svg version="1.1" id="Layer_1" xmlns="http://www.w3.org/2000/svg" xmlns:xlink="http://www.w3.org/1999/xlink" x="0px" y="0px"
	 viewBox="0 0 590 353" style="enable-background:new 0 0 590 353;" xml:space="preserve">
<style type="text/css">
	.st0{fill:#F5FAFF;}
	.st1{fill:#FFFFFF;}
	.st2{enable-background:new    ;}
	.st3{fill:#007FFF;}
	.st4{fill:#BBBFD6;}
	.st5{fill:#0B1445;}
</style>
<g id="Group_10946" transform="translate(-319 -857)">
	<g transform="matrix(1, 0, 0, 1, 319, 857)">
		<g>
			<g id="Rectangle_2446-2_1_">
				<rect class="st0" width="590" height="353"/>
			</g>
		</g>
	</g>
	<g id="Group_10944" transform="translate(379 1133.999)">
		<g transform="matrix(1, 0, 0, 1, -60, -277)">
			<g>
				<g id="Rectangle_2450-2_1_">
					<rect x="30" y="245" class="st1" width="260" height="70"/>
				</g>
			</g>
		</g>
		<g id="Group_10947" transform="translate(23.263 18.889)">
			<g id="Group_10940" transform="translate(23.737 0)">
				<g class="st2">
					<g>
						<path class="st3" d="M15.8-8v-5.3L11.4-21h2.5l3,5.2l3-5.2h2.5L18-13.3V-8H15.8z"/>
					</g>
					<g>
						<path class="st3" d="M26.5-7.7c-1,0-1.8-0.2-2.5-0.7c-0.7-0.4-1.3-1-1.7-1.8s-0.6-1.7-0.6-2.7s0.2-1.9,0.6-2.7
							c0.4-0.8,1-1.4,1.7-1.8s1.6-0.6,2.5-0.6c1,0,1.8,0.2,2.6,0.7c0.7,0.4,1.3,1,1.7,1.8s0.6,1.7,0.6,2.7s-0.2,1.9-0.6,2.7
							c-0.4,0.8-1,1.4-1.7,1.8C28.4-7.9,27.5-7.7,26.5-7.7z M26.5-9.8c0.9,0,1.5-0.3,1.9-0.9S29-12,29-12.9c0-0.9-0.2-1.7-0.6-2.3
							c-0.4-0.5-1-0.8-1.9-0.8c-0.6,0-1.1,0.1-1.4,0.4c-0.4,0.3-0.7,0.6-0.8,1.1c-0.2,0.5-0.3,1-0.3,1.6c0,0.9,0.2,1.7,0.6,2.3
							C25.1-10,25.7-9.8,26.5-9.8z"/>
					</g>
					<g>
						<path class="st3" d="M37-7.7c-0.7,0-1.3-0.1-1.8-0.4c-0.5-0.2-0.8-0.5-1.1-0.9s-0.5-0.8-0.6-1.2s-0.2-0.8-0.3-1.2
							c0-0.4-0.1-0.7-0.1-0.9v-5.4h2.2v4.7c0,0.3,0,0.6,0.1,1s0.1,0.7,0.3,1.1c0.2,0.3,0.4,0.6,0.7,0.9c0.3,0.2,0.7,0.3,1.2,0.3
							c0.3,0,0.5,0,0.8-0.1s0.5-0.2,0.7-0.5c0.2-0.2,0.4-0.5,0.5-0.9s0.2-0.9,0.2-1.5l1.3,0.5c0,0.8-0.2,1.6-0.5,2.2
							s-0.8,1.2-1.4,1.6C38.7-7.9,37.9-7.7,37-7.7z M40.2-8v-3h-0.3v-6.7h2.2V-8H40.2z"/>
					</g>
					<g>
						<path class="st3" d="M44.6-8v-9.7h1.9v2.4l-0.2-0.3c0.1-0.3,0.3-0.6,0.5-0.9s0.4-0.5,0.7-0.7c0.2-0.2,0.5-0.3,0.8-0.4
							c0.3-0.1,0.6-0.1,0.9-0.2c0.3,0,0.6,0,0.9,0v2c-0.3-0.1-0.6-0.1-1-0.1s-0.7,0.1-1,0.3c-0.3,0.2-0.5,0.4-0.7,0.6
							s-0.4,0.7-0.5,1s-0.1,0.7-0.1,1v5H44.6z"/>
					</g>
					<g>
						<path class="st3" d="M55.4-8v-13h5.4c0.1,0,0.3,0,0.5,0s0.4,0,0.5,0.1c0.8,0.1,1.4,0.4,1.9,0.7c0.5,0.4,0.9,0.9,1.1,1.5
							s0.4,1.2,0.4,1.9c0,0.7-0.1,1.4-0.4,1.9c-0.2,0.6-0.6,1.1-1.1,1.5s-1.1,0.6-1.8,0.7c-0.2,0-0.4,0-0.6,0.1c-0.2,0-0.4,0-0.5,0
							h-3.2V-8H55.4z M57.6-14.6h3.1c0.1,0,0.3,0,0.4,0s0.3,0,0.4-0.1c0.4-0.1,0.6-0.2,0.9-0.5c0.2-0.2,0.4-0.5,0.4-0.8
							c0.1-0.3,0.1-0.6,0.1-0.8c0-0.3,0-0.6-0.1-0.9s-0.2-0.5-0.4-0.8c-0.2-0.2-0.5-0.4-0.9-0.5c-0.1,0-0.3-0.1-0.4-0.1
							c-0.2,0-0.3,0-0.4,0h-3.1V-14.6z"/>
					</g>
					<g>
						<path class="st3" d="M66.9-8v-9.7h1.9v2.4l-0.2-0.3c0.1-0.3,0.3-0.6,0.5-0.9s0.4-0.5,0.7-0.7c0.2-0.2,0.5-0.3,0.8-0.4
							c0.3-0.1,0.6-0.1,0.9-0.2c0.3,0,0.6,0,0.9,0v2c-0.3-0.1-0.6-0.1-1-0.1s-0.7,0.1-1,0.3c-0.3,0.2-0.5,0.4-0.7,0.6
							s-0.3,0.5-0.4,0.9c-0.1,0.3-0.1,0.7-0.1,1V-8H66.9z"/>
					</g>
					<g>
						<path class="st3" d="M78.2-7.7c-1,0-1.8-0.2-2.5-0.7c-0.7-0.4-1.3-1-1.7-1.8c-0.4-0.8-0.6-1.7-0.6-2.7s0.2-1.9,0.6-2.7
							c0.4-0.8,1-1.4,1.7-1.8s1.6-0.6,2.5-0.6c1,0,1.8,0.2,2.6,0.7c0.7,0.4,1.3,1,1.7,1.8c0.4,0.8,0.6,1.7,0.6,2.7s-0.2,1.9-0.6,2.7
							c-0.4,0.8-1,1.4-1.7,1.8C80-7.9,79.2-7.7,78.2-7.7z M78.2-9.8c0.9,0,1.5-0.3,1.9-0.9s0.6-1.3,0.6-2.2c0-0.9-0.2-1.7-0.6-2.3
							C79.7-15.8,79-16,78.2-16c-0.6,0-1.1,0.1-1.4,0.4c-0.4,0.3-0.7,0.6-0.8,1.1c-0.2,0.5-0.3,1-0.3,1.6c0,0.9,0.2,1.7,0.6,2.3
							C76.7-10,77.4-9.8,78.2-9.8z"/>
					</g>
					<g>
						<path class="st3" d="M89.3-7.7c-1,0-1.9-0.2-2.6-0.7s-1.2-1.1-1.6-1.8c-0.4-0.8-0.6-1.6-0.6-2.6s0.2-1.9,0.6-2.7
							c0.4-0.8,0.9-1.4,1.7-1.8c0.7-0.4,1.6-0.7,2.5-0.7c1.1,0,2,0.3,2.8,0.8c0.8,0.6,1.3,1.3,1.5,2.3l-2.2,0.6
							c-0.2-0.5-0.4-0.9-0.8-1.2s-0.8-0.4-1.3-0.4c-0.6,0-1,0.1-1.4,0.4s-0.6,0.6-0.8,1.1c-0.2,0.5-0.3,1-0.3,1.6
							c0,0.9,0.2,1.7,0.6,2.2c0.4,0.6,1,0.9,1.8,0.9c0.6,0,1-0.1,1.4-0.4c0.3-0.3,0.6-0.6,0.8-1.1l2.2,0.5c-0.3,1-0.8,1.8-1.6,2.3
							S90.3-7.7,89.3-7.7z"/>
					</g>
					<g>
						<path class="st3" d="M99.5-7.7c-1,0-1.8-0.2-2.6-0.6c-0.8-0.4-1.3-1-1.7-1.8c-0.4-0.8-0.6-1.6-0.6-2.6c0-1.1,0.2-2,0.6-2.8
							s1-1.4,1.7-1.8s1.6-0.6,2.5-0.6c1,0,1.9,0.2,2.6,0.7c0.7,0.5,1.2,1.1,1.6,2c0.3,0.9,0.5,1.9,0.4,3h-2.2V-13
							c0-1.1-0.2-1.8-0.6-2.3c-0.4-0.5-0.9-0.7-1.7-0.7c-0.9,0-1.5,0.3-2,0.8s-0.6,1.4-0.6,2.4s0.2,1.7,0.6,2.3s1.1,0.8,1.9,0.8
							c0.5,0,1-0.1,1.4-0.4c0.4-0.2,0.7-0.6,0.9-1l2.1,0.6c-0.4,0.9-0.9,1.6-1.7,2C101.3-8,100.5-7.7,99.5-7.7z M96.2-12.3v-1.6h6.7
							v1.6H96.2z"/>
					</g>
					<g>
						<path class="st3" d="M110.4-7.7c-1,0-1.8-0.2-2.6-0.6c-0.8-0.4-1.3-1-1.7-1.8s-0.6-1.6-0.6-2.6c0-1.1,0.2-2,0.6-2.8
							c0.4-0.8,1-1.4,1.7-1.8s1.6-0.6,2.5-0.6c1,0,1.9,0.2,2.6,0.7c0.7,0.5,1.2,1.1,1.6,2c0.3,0.9,0.5,1.9,0.4,3h-2.2V-13
							c0-1.1-0.2-1.8-0.6-2.3c-0.4-0.5-0.9-0.7-1.7-0.7c-0.9,0-1.5,0.3-2,0.8s-0.6,1.4-0.6,2.4s0.2,1.7,0.6,2.3s1.1,0.8,1.9,0.8
							c0.5,0,1-0.1,1.4-0.4c0.4-0.2,0.7-0.6,0.9-1l2.1,0.6c-0.4,0.9-0.9,1.6-1.7,2C112.2-8,111.3-7.7,110.4-7.7z M107-12.3v-1.6h6.7
							v1.6H107z"/>
					</g>
					<g>
						<path class="st3" d="M120.7-7.7c-0.9,0-1.7-0.2-2.3-0.7s-1.2-1.1-1.5-1.8c-0.4-0.8-0.5-1.6-0.5-2.6s0.2-1.9,0.6-2.6
							c0.4-0.8,0.9-1.4,1.6-1.8c0.7-0.4,1.5-0.7,2.4-0.7s1.7,0.2,2.3,0.7s1.1,1.1,1.4,1.8c0.3,0.8,0.5,1.7,0.5,2.6
							c0,1-0.2,1.8-0.5,2.6c-0.3,0.8-0.8,1.4-1.4,1.8S121.6-7.7,120.7-7.7z M121-9.7c0.6,0,1.1-0.1,1.4-0.4c0.4-0.3,0.6-0.6,0.8-1.1
							s0.2-1,0.2-1.7c0-0.6-0.1-1.2-0.2-1.7c-0.2-0.5-0.4-0.8-0.8-1.1c-0.3-0.3-0.8-0.4-1.4-0.4c-0.6,0-1.1,0.1-1.4,0.4
							s-0.7,0.7-0.8,1.2c-0.2,0.5-0.3,1-0.3,1.6s0.1,1.1,0.3,1.6s0.4,0.9,0.8,1.1C120-9.8,120.5-9.7,121-9.7z M123.5-8v-6.8h-0.3
							V-21h2.2v13H123.5z"/>
					</g>
					<g>
						<path class="st3" d="M131.7-7.7c-1.2,0-2.2-0.3-2.9-0.8s-1.2-1.3-1.4-2.3l2.2-0.3c0.1,0.5,0.4,0.9,0.8,1.1
							c0.4,0.3,0.9,0.4,1.5,0.4c0.5,0,0.9-0.1,1.2-0.3s0.4-0.5,0.4-0.9c0-0.2-0.1-0.4-0.2-0.5s-0.3-0.3-0.7-0.4s-0.9-0.3-1.6-0.5
							c-0.8-0.2-1.5-0.4-1.9-0.7s-0.8-0.5-1-0.9s-0.3-0.8-0.3-1.2c0-0.6,0.2-1.1,0.5-1.6s0.8-0.8,1.3-1c0.6-0.2,1.2-0.4,2-0.4
							s1.4,0.1,2,0.4c0.6,0.2,1.1,0.6,1.4,1c0.4,0.4,0.6,0.9,0.7,1.5l-2.2,0.4c-0.1-0.4-0.2-0.7-0.6-1c-0.3-0.2-0.7-0.4-1.3-0.4
							c-0.5,0-0.9,0-1.2,0.2s-0.5,0.4-0.5,0.8c0,0.2,0.1,0.3,0.2,0.5s0.4,0.3,0.8,0.4c0.4,0.1,0.9,0.3,1.7,0.5s1.4,0.4,1.9,0.7
							s0.8,0.6,1,0.9c0.2,0.4,0.3,0.8,0.3,1.3c0,1-0.4,1.7-1.1,2.3C133.9-8,132.9-7.7,131.7-7.7z"/>
					</g>
				</g>
				<g id="Group_10948" transform="translate(0)">
					<g id="Path_36557">
						<path class="st3" d="M4.7-17.6l-3.6-3.1v-8.4c0-0.5-0.4-1-1-1l0,0h-3.9c-0.5,0-1,0.4-1,1l0,0v3.1l-6.2-5.4
							c-0.5-0.4-1-0.6-1.6-0.6s-1.2,0.2-1.6,0.6l-15.5,13.8c-0.2,0.2-0.3,0.4-0.3,0.7c0,0.2,0.1,0.5,0.2,0.7l1.3,1.4
							c0.2,0.2,0.5,0.3,0.7,0.3c0.2,0,0.5-0.1,0.7-0.2l1-0.9v12.8c0,1.1,0.9,1.9,1.9,1.9l0,0h23.3C0.2-0.9,1-1.8,1-2.8l0,0v-12.8
							l1,0.9c0.2,0.1,0.4,0.2,0.7,0.2s0.5-0.1,0.7-0.3l1.3-1.4c0.1-0.2,0.2-0.4,0.2-0.6C5-17.2,4.9-17.4,4.7-17.6z M-12.5-21.3
							c2.1,0,3.9,1.7,3.9,3.9s-1.7,3.9-3.9,3.9s-3.9-1.7-3.9-3.9l0,0C-16.4-19.6-14.6-21.3-12.5-21.3z M-5.7-4.8h-13.6
							c-0.5,0-1-0.4-1-1l0,0c0-3.2,2.6-5.8,5.8-5.8h3.9c3.2,0,5.8,2.6,5.8,5.8C-4.7-5.2-5.2-4.8-5.7-4.8z"/>
					</g>
				</g>
			</g>
		</g>
	</g>
	<g class="st2">
		<g>
			<path class="st3" d="M521.5,1080v-20.2h8.5c0.2,0,0.5,0,0.8,0s0.6,0,0.9,0.1c1.2,0.2,2.2,0.6,3,1.2s1.3,1.4,1.7,2.3
				s0.5,1.9,0.5,3.1c0,1.7-0.4,3.1-1.3,4.3c-0.8,1.2-2.2,1.9-3.9,2.2l-1.7,0.1h-4.7v6.8L521.5,1080L521.5,1080z M525.3,1069.6h4.5
				c0.2,0,0.4,0,0.6,0c0.2,0,0.4-0.1,0.6-0.1c0.5-0.1,0.9-0.4,1.2-0.7c0.3-0.3,0.5-0.7,0.6-1.1s0.2-0.8,0.2-1.2s-0.1-0.7-0.2-1.2
				c-0.1-0.4-0.3-0.8-0.6-1.1c-0.3-0.3-0.7-0.6-1.2-0.7c-0.2-0.1-0.4-0.1-0.6-0.1c-0.2,0-0.4,0-0.6,0h-4.5V1069.6z M532.9,1080
				l-4-8.2l3.9-0.8l4.4,9H532.9z"/>
		</g>
		<g>
			<path class="st3" d="M540.2,1080v-20.2h13.2v3.6H544v4.3h7.7v3.6H544v5.2h9.4v3.6L540.2,1080L540.2,1080z"/>
		</g>
		<g>
			<path class="st3" d="M556.8,1080v-20.2h3.9l8.8,13.4v-13.4h3.9v20.2h-3.9l-8.8-13.4v13.4H556.8z"/>
		</g>
		<g>
			<path class="st3" d="M581.9,1080v-16.6h-6.4v-3.6H592v3.6h-6.4v16.6H581.9z"/>
		</g>
		<g>
			<path class="st3" d="M599.3,1080v-20.2h3.8v20.2H599.3z"/>
		</g>
		<g>
			<path class="st3" d="M607.3,1080v-20.2h3.9l8.8,13.4v-13.4h3.9v20.2H620l-8.8-13.4v13.4H607.3z"/>
		</g>
		<g>
			<path class="st3" d="M636.4,1080.4c-2,0-3.8-0.4-5.2-1.3c-1.5-0.9-2.6-2.1-3.4-3.7c-0.8-1.6-1.2-3.4-1.2-5.5s0.4-3.9,1.2-5.5
				s1.9-2.8,3.4-3.7c1.5-0.9,3.2-1.3,5.2-1.3c2.3,0,4.3,0.6,5.8,1.7c1.6,1.1,2.7,2.7,3.3,4.7l-3.8,1.1c-0.4-1.2-1-2.2-1.9-2.8
				c-0.9-0.7-2-1-3.4-1c-1.3,0-2.3,0.3-3.2,0.9s-1.5,1.4-1.9,2.4s-0.6,2.3-0.6,3.7s0.2,2.6,0.6,3.7c0.4,1,1.1,1.8,1.9,2.4
				s1.9,0.9,3.2,0.9c1.4,0,2.5-0.3,3.4-1s1.5-1.6,1.9-2.8l3.8,1.1c-0.6,2-1.8,3.5-3.3,4.7C640.6,1079.8,638.7,1080.4,636.4,1080.4z"
				/>
		</g>
		<g>
			<path class="st3" d="M657.3,1080.4c-2,0-3.8-0.4-5.2-1.3c-1.5-0.9-2.6-2.1-3.4-3.7c-0.8-1.6-1.2-3.4-1.2-5.5s0.4-3.9,1.2-5.5
				s1.9-2.8,3.4-3.7c1.5-0.9,3.2-1.3,5.2-1.3s3.8,0.4,5.2,1.3c1.5,0.9,2.6,2.1,3.4,3.7c0.8,1.6,1.2,3.4,1.2,5.5s-0.4,3.9-1.2,5.5
				s-1.9,2.8-3.4,3.7C661,1080,659.3,1080.4,657.3,1080.4z M657.3,1076.8c1.3,0,2.3-0.3,3.2-0.8s1.5-1.4,1.9-2.4s0.6-2.3,0.6-3.7
				s-0.2-2.6-0.6-3.6c-0.4-1-1.1-1.8-1.9-2.4s-1.9-0.9-3.2-0.9s-2.3,0.3-3.2,0.8s-1.5,1.4-1.9,2.4s-0.6,2.3-0.6,3.7s0.2,2.6,0.6,3.6
				c0.4,1,1.1,1.8,1.9,2.4S656,1076.8,657.3,1076.8z"/>
		</g>
		<g>
			<path class="st3" d="M669.8,1080v-20.2h3.4l6.7,13.4l6.7-13.4h3.4v20.2h-3.6v-12l-5.9,12h-1.3l-5.9-12v12H669.8z"/>
		</g>
		<g>
			<path class="st3" d="M693.9,1080v-20.2h13.2v3.6h-9.4v4.3h7.7v3.6h-7.7v5.2h9.4v3.6L693.9,1080L693.9,1080z"/>
		</g>
	</g>
	<g id="Group_10943" transform="translate(649 1133.999)">
		<g transform="matrix(1, 0, 0, 1, -330, -277)">
			<g>
				<g id="Rectangle_2447-2_1_">
					<rect x="300" y="245" class="st1" width="260" height="70"/>
				</g>
			</g>
		</g>
		<g id="Group_10939" transform="translate(73.281 18)">
			<g class="st2">
				<g>
					<path class="st4" d="M14.3-7.2v-13h5.4c0.1,0,0.3,0,0.5,0s0.4,0,0.5,0.1c0.8,0.1,1.4,0.4,1.9,0.7c0.5,0.4,0.9,0.9,1.1,1.5
						c0.2,0.6,0.4,1.2,0.4,1.9c0,1.1-0.3,2-0.8,2.7s-1.4,1.2-2.5,1.4l-0.9,0.1h-3.3v4.5h-2.3V-7.2z M16.4-13.8h3.1
						c0.1,0,0.3,0,0.4,0c0.2,0,0.3,0,0.4-0.1c0.4-0.1,0.6-0.2,0.9-0.5c0.2-0.2,0.4-0.5,0.4-0.8c0.1-0.3,0.1-0.6,0.1-0.8
						c0-0.3,0-0.6-0.1-0.9s-0.2-0.5-0.4-0.8C21-17.8,20.7-18,20.3-18c-0.1,0-0.3-0.1-0.4-0.1c-0.2,0-0.3,0-0.4,0h-3.1
						C16.4-18.1,16.4-13.8,16.4-13.8z M21.7-7.2l-2.6-5.3l2.2-0.5l2.8,5.8H21.7z"/>
				</g>
				<g>
					<path class="st4" d="M30.4-6.9c-1,0-1.8-0.2-2.5-0.7c-0.7-0.4-1.3-1-1.7-1.8s-0.6-1.7-0.6-2.7s0.2-1.9,0.6-2.7
						c0.4-0.8,1-1.4,1.7-1.8s1.6-0.6,2.5-0.6c1,0,1.8,0.2,2.6,0.7c0.7,0.4,1.3,1,1.7,1.8c0.4,0.8,0.6,1.7,0.6,2.7s-0.2,1.9-0.6,2.7
						c-0.4,0.8-1,1.4-1.7,1.8C32.3-7.1,31.4-6.9,30.4-6.9z M30.4-9c0.9,0,1.5-0.3,1.9-0.9s0.6-1.3,0.6-2.2c0-0.9-0.2-1.7-0.6-2.3
						c-0.4-0.6-1.1-0.8-1.9-0.8c-0.6,0-1.1,0.1-1.4,0.4s-0.7,0.6-0.8,1.1c-0.2,0.5-0.3,1-0.3,1.6c0,0.9,0.2,1.7,0.6,2.3
						C29-9.2,29.6-9,30.4-9z"/>
				</g>
				<g>
					<path class="st4" d="M38.2-2.9L40.1-8v1.5l-4.2-10.4h2.3l3,7.7h-0.6l2.9-7.7h2.2l-5.4,14C40.3-2.9,38.2-2.9,38.2-2.9z"/>
				</g>
				<g>
					<path class="st4" d="M49.3-6.9c-0.7,0-1.3-0.1-1.8-0.4s-0.9-0.6-1.1-1.1C46.2-8.8,46-9.3,46-9.9c0-0.5,0.1-0.9,0.2-1.3
						s0.4-0.7,0.7-1c0.3-0.3,0.7-0.5,1.3-0.7c0.4-0.1,0.8-0.2,1.4-0.3c0.5-0.1,1.1-0.2,1.7-0.3s1.3-0.2,1.9-0.3l-0.8,0.4
						c0-0.7-0.1-1.2-0.4-1.5s-0.8-0.5-1.5-0.5c-0.4,0-0.9,0.1-1.3,0.3c-0.4,0.2-0.7,0.6-0.9,1.1l-2-0.6c0.2-0.8,0.7-1.5,1.4-2
						c0.7-0.5,1.6-0.7,2.7-0.7c0.9,0,1.6,0.1,2.3,0.4c0.7,0.3,1.1,0.7,1.5,1.4c0.2,0.3,0.3,0.7,0.3,1c0,0.4,0.1,0.7,0.1,1.2v6h-1.9
						v-2.1L53-9.1c-0.4,0.7-0.9,1.2-1.5,1.5S50.2-6.9,49.3-6.9z M49.8-8.7c0.5,0,0.9-0.1,1.3-0.3c0.3-0.2,0.6-0.4,0.8-0.6
						s0.3-0.5,0.4-0.7c0.1-0.3,0.2-0.6,0.2-0.9c0-0.4,0-0.6,0-0.9l0.7,0.2c-0.7,0.1-1.2,0.2-1.7,0.3s-0.9,0.2-1.2,0.2
						c-0.3,0.1-0.6,0.1-0.9,0.2s-0.5,0.2-0.6,0.3c-0.2,0.1-0.3,0.3-0.4,0.4c-0.1,0.2-0.1,0.3-0.1,0.5s0.1,0.5,0.2,0.6
						C48.6-9.2,48.8-9.1,49-9C49.1-8.7,49.4-8.7,49.8-8.7z"/>
				</g>
				<g>
					<path class="st4" d="M57.2-7.2v-13.2h2.2v13.2H57.2z"/>
				</g>
				<g>
					<path class="st4" d="M61-15.2v-1.7h6.8v1.7H61z M67.7-7.2C67.1-7.1,66.4-7,65.8-7s-1.2-0.1-1.7-0.3c-0.5-0.2-0.9-0.6-1.1-1
						c-0.2-0.4-0.3-0.8-0.4-1.3c0-0.4,0-0.9,0-1.5v-8.5h2.2v8.3c0,0.4,0,0.7,0,1s0.1,0.5,0.2,0.7C65.2-9.2,65.6-9,66-9
						c0.5,0,1,0,1.6-0.1v1.9H67.7z"/>
				</g>
				<g>
					<path class="st4" d="M70.8-2.9L72.7-8v1.5l-4.2-10.4h2.3l3,7.7h-0.6l2.9-7.7h2.2l-5.4,14C72.9-2.9,70.8-2.9,70.8-2.9z"/>
				</g>
				<g>
					<path class="st4" d="M86.3-14c-0.6,0-1.1-0.1-1.6-0.4s-0.9-0.7-1.2-1.2s-0.4-1-0.4-1.6s0.2-1.1,0.5-1.6s0.7-0.9,1.2-1.2
						c0.5-0.3,1-0.4,1.6-0.4s1.1,0.1,1.6,0.4s0.9,0.7,1.2,1.2c0.3,0.5,0.4,1,0.4,1.6s-0.1,1.1-0.4,1.6s-0.7,0.9-1.2,1.2
						C87.4-14.1,86.9-14,86.3-14z M85-7.2l-1.4-1.4l11.5-11.5l1.4,1.4L85-7.2z M86.3-15.8c0.3,0,0.5-0.1,0.7-0.2s0.4-0.3,0.5-0.5
						c0.1-0.2,0.2-0.4,0.2-0.7c0-0.3-0.1-0.5-0.2-0.7c-0.1-0.2-0.3-0.4-0.5-0.5s-0.4-0.2-0.7-0.2s-0.5,0.1-0.7,0.2
						c-0.2,0.1-0.4,0.3-0.5,0.5c-0.1,0.2-0.2,0.4-0.2,0.7c0,0.3,0.1,0.5,0.2,0.7c0.1,0.2,0.3,0.4,0.5,0.5S86-15.8,86.3-15.8z
						 M93.9-6.9c-0.6,0-1.1-0.1-1.6-0.4S91.4-8,91.1-8.5c-0.3-0.5-0.4-1-0.4-1.6s0.1-1.1,0.5-1.6c0.3-0.5,0.7-0.9,1.2-1.2
						s1-0.4,1.6-0.4s1.1,0.1,1.6,0.4s0.9,0.7,1.2,1.2s0.4,1,0.4,1.6S97.1-9,96.8-8.5s-0.7,0.9-1.2,1.2C95-7.1,94.4-6.9,93.9-6.9z
						 M93.8-8.8c0.3,0,0.5-0.1,0.7-0.2s0.4-0.3,0.5-0.5s0.2-0.4,0.2-0.7s-0.1-0.5-0.2-0.7s-0.3-0.4-0.5-0.5s-0.4-0.2-0.7-0.2
						s-0.5,0.1-0.7,0.2s-0.4,0.3-0.5,0.5s-0.2,0.4-0.2,0.7s0.1,0.5,0.2,0.7s0.3,0.4,0.5,0.5S93.6-8.8,93.8-8.8z"/>
				</g>
			</g>
			<g id="Group_10925">
				<g id="Path_36434">
					<path class="st4" d="M-15.7-9.7V3l0,0l0,0h1.5l0,0l0,0V-8c0-0.8,0.5-1.6,1.4-1.7c0.9-0.1,1.7,0.5,1.8,1.3c0,0.1,0,0.2,0,0.2V3
						l0,0l0,0h1.5l0,0l0,0V-9.7l-3.2-3.2L-15.7-9.7z"/>
				</g>
				<g id="Path_36435">
					<path class="st4" d="M-12.5-16.1l3.2-3.2v-12.2c0-0.3-0.2-0.5-0.5-0.5h-0.5c-0.3,0-0.5,0.2-0.5,0.5V-21c0,0.8-0.5,1.6-1.4,1.7
						s-1.7-0.5-1.8-1.3c0-0.1,0-0.2,0-0.2v-10.7c0-0.3-0.2-0.5-0.5-0.5H-15c-0.3,0-0.5,0.2-0.5,0.5v12.2L-12.5-16.1z"/>
				</g>
				<g id="Path_36436">
					<path class="st4" d="M-6-16.1H4.5c0.3,0,0.5-0.2,0.5-0.5v-0.5c0-0.3-0.2-0.5-0.5-0.5H-7.7l-3.2,3.2l3.2,3.2H4.5
						c0.3,0,0.5-0.2,0.5-0.5v-0.5c0-0.3-0.2-0.5-0.5-0.5H-6.1c-0.9,0-1.6-0.7-1.6-1.6c0-0.1,0-0.2,0-0.2C-7.6-15.5-6.8-16.1-6-16.1z
						"/>
				</g>
				<g id="Path_36437">
					<path class="st4" d="M-17.3-17.7h-12.2c-0.3,0-0.5,0.2-0.5,0.5v0.5c0,0.3,0.2,0.5,0.5,0.5H-19c0.8,0,1.6,0.5,1.7,1.4
						c0.1,0.9-0.5,1.7-1.3,1.8c-0.1,0-0.2,0-0.2,0h-10.7c-0.3,0-0.5,0.2-0.5,0.5v0.5c0,0.3,0.2,0.5,0.5,0.5h12.2l3.2-3.2L-17.3-17.7
						z"/>
				</g>
				<g id="Path_36438">
					<path class="st4" d="M-20.1-9.7h-6.2c-0.3,0-0.5,0.2-0.5,0.5v0.5c0,0.3,0.2,0.5,0.5,0.5h3.5l-3.6,3.6c-0.2,0.2-0.2,0.5,0,0.7
						c0.1,0.1,0.2,0.3,0.3,0.4c0.2,0.2,0.5,0.2,0.8,0l0,0l6.3-6.3L-20.1-9.7L-20.1-9.7z"/>
				</g>
				<g id="Path_36439">
					<path class="st4" d="M-23.6-1.8c-0.2,0.2-0.2,0.6,0,0.8l0,0l0.4,0.3c0.2,0.2,0.5,0.1,0.7,0l3.6-3.6v3.6c0,0.3,0.2,0.5,0.5,0.5
						h0.5c0.3,0,0.5-0.2,0.5-0.5v-7.4L-23.6-1.8z"/>
				</g>
				<g id="Path_36440">
					<path class="st4" d="M-7.7-8v7.3c0,0.3,0.2,0.5,0.5,0.5h0.5c0.3,0,0.5-0.2,0.5-0.5v-3.5l3.6,3.6c0.2,0.2,0.5,0.2,0.7,0
						c0.1-0.1,0.3-0.2,0.4-0.3c0.2-0.2,0.2-0.5,0-0.8l0,0L-7.7-8z"/>
				</g>
				<g id="Path_36441">
					<path class="st4" d="M1.3-9.7h-7.4l6.4,6.4c0.2,0.2,0.6,0.2,0.8,0l0,0l0.3-0.4c0.2-0.2,0.1-0.5,0-0.7L-2.2-8h3.6
						c0.3,0,0.5-0.2,0.5-0.5V-9C1.8-9.5,1.6-9.7,1.3-9.7z"/>
				</g>
				<g id="Path_36442">
					<path class="st4" d="M-4.9-19.3h6.2c0.3,0,0.5-0.2,0.5-0.5v-0.5c0-0.3-0.2-0.5-0.5-0.5h-3.5l3.6-3.6c0.2-0.2,0.2-0.5,0-0.7
						c-0.1-0.1-0.2-0.3-0.3-0.4c-0.2-0.2-0.5-0.2-0.8,0l0,0L-6-19.3H-4.9z"/>
				</g>
				<g id="Path_36443">
					<path class="st4" d="M-1.4-27.2c0.2-0.2,0.2-0.6,0-0.8l0,0l-0.4-0.3c-0.2-0.2-0.5-0.1-0.7,0l-3.6,3.6v-3.6
						c0-0.3-0.2-0.5-0.5-0.5h-0.5c-0.3,0-0.5,0.2-0.5,0.5v7.4L-1.4-27.2z"/>
				</g>
				<g id="Path_36444">
					<path class="st4" d="M-17.3-21v-7.3c0-0.3-0.2-0.5-0.5-0.5h-0.5c-0.3,0-0.5,0.2-0.5,0.5v3.5l-3.6-3.5c-0.2-0.2-0.5-0.2-0.7,0
						c-0.2,0-0.3,0.1-0.4,0.2c-0.2,0.2-0.2,0.5,0,0.8l0,0L-17.3-21z"/>
				</g>
				<g id="Path_36445">
					<path class="st4" d="M-26.3-19.3h7.4l-6.3-6.3c-0.2-0.3-0.6-0.3-0.8-0.1l0,0l-0.4,0.5c-0.1,0.2-0.1,0.5,0.1,0.7l3.6,3.6h-3.6
						c-0.3,0-0.5,0.2-0.5,0.5v0.5C-26.8-19.5-26.6-19.3-26.3-19.3z"/>
				</g>
			</g>
		</g>
	</g>
	<g id="Union_4">
		<path class="st1" d="M596.1,1028H319V857h590v171H623.6l-13.8,13.8L596.1,1028z"/>
	</g>
	<g id="Group_10945" transform="translate(497.5 946)">
		<g id="Group_10941" transform="translate(111)">
			<g class="st2">
				<g>
					<path class="st5" d="M-27.5-4v-20.2h8.5c0.2,0,0.5,0,0.8,0c0.3,0,0.6,0,0.9,0.1c1.2,0.2,2.2,0.6,3,1.2s1.3,1.4,1.7,2.3
						c0.4,0.9,0.5,1.9,0.5,3.1c0,1.7-0.4,3.1-1.3,4.3c-0.8,1.2-2.2,1.9-3.9,2.2l-1.7,0.2h-4.7V-4H-27.5z M-23.7-14.4h4.5
						c0.2,0,0.4,0,0.6,0c0.2,0,0.4-0.1,0.6-0.1c0.5-0.1,0.9-0.4,1.2-0.7c0.3-0.3,0.5-0.7,0.6-1.1s0.2-0.8,0.2-1.2
						c0-0.4-0.1-0.7-0.2-1.2c-0.1-0.4-0.3-0.8-0.6-1.1s-0.7-0.6-1.2-0.7c-0.2-0.1-0.4-0.1-0.6-0.1s-0.4,0-0.6,0h-4.5V-14.4z
						 M-16.2-4l-4-8.2l3.9-0.8l4.4,9H-16.2z"/>
				</g>
				<g>
					<path class="st5" d="M-8.8-4v-20.2H4.4v3.6H-5v4.3h7.7v3.6H-5v5.2h9.4V-4H-8.8z"/>
				</g>
				<g>
					<path class="st5" d="M7.7-4v-20.2h3.9l8.8,13.4v-13.4h3.9V-4h-3.9l-8.8-13.4V-4H7.7z"/>
				</g>
				<g>
					<path class="st5" d="M32.8-4v-16.6h-6.4v-3.6H43v3.6h-6.4V-4H32.8z"/>
				</g>
				<g>
					<path class="st5" d="M50-4v-20.2h8.5c0.2,0,0.5,0,0.8,0s0.6,0,0.9,0.1c1.2,0.2,2.2,0.6,3,1.2s1.3,1.4,1.7,2.3
						c0.4,0.9,0.5,1.9,0.5,3.1c0,1.1-0.2,2.2-0.6,3.1s-0.9,1.7-1.7,2.3c-0.8,0.6-1.8,1-2.9,1.2c-0.3,0-0.6,0.1-0.9,0.1s-0.6,0-0.8,0
						h-4.7V-4H50z M53.8-14.4h4.5c0.2,0,0.4,0,0.6,0s0.4-0.1,0.6-0.1c0.5-0.1,0.9-0.4,1.2-0.7c0.3-0.3,0.5-0.7,0.6-1.1
						s0.2-0.8,0.2-1.2c0-0.4-0.1-0.7-0.2-1.2c-0.1-0.4-0.3-0.8-0.6-1.1s-0.7-0.6-1.2-0.7c-0.2-0.1-0.4-0.1-0.6-0.1s-0.4,0-0.6,0
						h-4.5V-14.4z"/>
				</g>
				<g>
					<path class="st5" d="M68.5-4v-20.2h3.8v16.6H81V-4H68.5z"/>
				</g>
				<g>
					<path class="st5" d="M81.9-4l6.2-20.2h5.7L100-4h-4l-5.5-17.8h0.7L85.9-4H81.9z M85.6-8.2v-3.6h10.6v3.6H85.6z"/>
				</g>
				<g>
					<path class="st5" d="M102.5-4v-20.2h3.9l8.8,13.4v-13.4h3.9V-4h-3.9l-8.8-13.4V-4H102.5z"/>
				</g>
			</g>
			<g class="st2">
				<g>
					<path class="st4" d="M-28.1,22V7.6h5.8c0.1,0,0.3,0,0.5,0s0.4,0,0.6,0.1c0.8,0.1,1.5,0.4,2,0.8s0.9,1,1.2,1.6
						c0.3,0.6,0.4,1.3,0.4,2.1s-0.1,1.5-0.4,2.1s-0.7,1.2-1.2,1.6s-1.2,0.7-2,0.8c-0.2,0-0.4,0-0.6,0.1c-0.2,0-0.4,0-0.5,0H-26V22
						H-28.1z M-26,14.8h3.6c0.1,0,0.3,0,0.4,0c0.2,0,0.3,0,0.5-0.1c0.4-0.1,0.8-0.3,1-0.6c0.3-0.3,0.4-0.6,0.6-0.9
						c0.1-0.4,0.2-0.7,0.2-1.1s-0.1-0.7-0.2-1.1c-0.1-0.4-0.3-0.7-0.6-0.9c-0.3-0.3-0.6-0.5-1-0.6c-0.1,0-0.3-0.1-0.5-0.1
						s-0.3,0-0.4,0H-26V14.8z"/>
				</g>
				<g>
					<path class="st4" d="M-15.6,22V11.2h1.9v2.6l-0.3-0.3c0.1-0.3,0.3-0.7,0.5-1s0.5-0.5,0.7-0.7c0.3-0.2,0.6-0.4,0.9-0.5
						s0.7-0.2,1-0.2c0.4,0,0.7,0,1,0.1v2c-0.4-0.1-0.7-0.1-1.2-0.1c-0.4,0-0.8,0.2-1.2,0.4c-0.3,0.2-0.6,0.5-0.8,0.8s-0.3,0.7-0.4,1
						c-0.1,0.4-0.1,0.8-0.1,1.2V22H-15.6z"/>
				</g>
				<g>
					<path class="st4" d="M-7.6,9.4v-2h2.1v2H-7.6z M-7.6,22V11.2h2.1V22H-7.6z"/>
				</g>
				<g>
					<path class="st4" d="M2.1,22.3c-1.1,0-2-0.2-2.8-0.7s-1.4-1.2-1.8-2c-0.4-0.9-0.6-1.8-0.6-2.9c0-1.1,0.2-2.1,0.6-3s1-1.5,1.8-2
						S1,11,2.1,11c1.2,0,2.2,0.3,3,0.9c0.8,0.6,1.4,1.4,1.7,2.4l-2.1,0.6c-0.2-0.6-0.5-1.1-1-1.4c-0.5-0.3-1-0.5-1.6-0.5
						c-0.7,0-1.2,0.2-1.7,0.5c-0.4,0.3-0.8,0.8-1,1.3c-0.2,0.6-0.3,1.2-0.3,1.9c0,1.1,0.3,2,0.8,2.7s1.2,1,2.2,1
						c0.7,0,1.2-0.2,1.6-0.5c0.4-0.3,0.7-0.8,1-1.3l2.1,0.5c-0.4,1.1-0.9,1.9-1.7,2.4S3.2,22.3,2.1,22.3z"/>
				</g>
				<g>
					<path class="st4" d="M13.3,22.3c-1.1,0-2-0.2-2.8-0.7s-1.4-1.1-1.9-2c-0.5-0.8-0.7-1.8-0.7-2.9c0-1.2,0.2-2.2,0.7-3.1
						s1.1-1.5,1.9-2c0.8-0.5,1.7-0.7,2.8-0.7s2,0.3,2.8,0.8s1.4,1.2,1.7,2.2c0.4,0.9,0.5,2.1,0.5,3.4h-2.1v-0.8
						c0-1.3-0.3-2.2-0.7-2.8c-0.5-0.6-1.2-0.9-2.1-0.9c-1,0-1.8,0.3-2.4,1c-0.5,0.7-0.8,1.6-0.8,2.9c0,1.2,0.3,2.1,0.8,2.8
						c0.5,0.6,1.3,1,2.3,1c0.7,0,1.2-0.1,1.7-0.4c0.5-0.3,0.8-0.7,1.1-1.3l2.1,0.6c-0.4,1-1.1,1.7-1.9,2.2S14.4,22.3,13.3,22.3z
						 M9.5,17.2v-1.6h7.7v1.6H9.5z"/>
				</g>
				<g>
					<path class="st4" d="M30.2,7.6L26.4,22h-2.1l3.8-14.4H30.2z"/>
				</g>
				<g>
					<path class="st4" d="M36.8,22V7.6h5.8c0.1,0,0.3,0,0.5,0s0.4,0,0.6,0.1c0.8,0.1,1.5,0.4,2,0.8s0.9,1,1.2,1.6
						c0.3,0.6,0.4,1.3,0.4,2.1c0,1.1-0.3,2.1-0.9,3c-0.6,0.8-1.5,1.3-2.6,1.6l-0.8,0h-4.1V22H36.8z M38.9,14.8h3.6
						c0.1,0,0.3,0,0.4,0c0.2,0,0.3,0,0.5-0.1c0.4-0.1,0.8-0.3,1-0.6c0.3-0.3,0.4-0.6,0.6-0.9c0.1-0.4,0.2-0.7,0.2-1.1
						S45.1,11.4,45,11c-0.1-0.4-0.3-0.7-0.6-0.9c-0.3-0.3-0.6-0.5-1-0.6c-0.1,0-0.3-0.1-0.5-0.1s-0.3,0-0.4,0h-3.6V14.8z M45.2,22
						l-2.8-5.9l2.1-0.5l3.1,6.4H45.2z"/>
				</g>
				<g>
					<path class="st4" d="M54.5,22.3c-1.1,0-2-0.2-2.8-0.7s-1.4-1.2-1.8-2c-0.4-0.9-0.6-1.8-0.6-3c0-1.1,0.2-2.1,0.7-3
						c0.4-0.9,1.1-1.5,1.9-2s1.7-0.7,2.8-0.7c1.1,0,2,0.2,2.8,0.7s1.4,1.2,1.8,2c0.4,0.9,0.6,1.8,0.6,3c0,1.1-0.2,2.1-0.7,3
						c-0.4,0.9-1.1,1.5-1.8,2C56.5,22.1,55.6,22.3,54.5,22.3z M54.5,20.3c1,0,1.8-0.3,2.3-1s0.8-1.6,0.8-2.7c0-1.1-0.3-2-0.8-2.7
						s-1.3-1-2.3-1c-0.7,0-1.3,0.2-1.7,0.5c-0.5,0.3-0.8,0.8-1,1.3c-0.2,0.6-0.3,1.2-0.3,1.9c0,1.1,0.3,2,0.8,2.7
						C52.7,20,53.5,20.3,54.5,20.3z"/>
				</g>
				<g>
					<path class="st4" d="M63.1,26.8l2.1-5.7v1.7l-4.7-11.6h2.2l3.5,9h-0.6l3.4-9h2.1l-6,15.6C65.1,26.8,63.1,26.8,63.1,26.8z"/>
				</g>
				<g>
					<path class="st4" d="M75.2,22.3c-0.8,0-1.5-0.1-2-0.4c-0.5-0.3-0.9-0.7-1.2-1.2c-0.3-0.5-0.4-1-0.4-1.6c0-0.5,0.1-1,0.3-1.4
						s0.5-0.8,0.9-1.1s0.8-0.5,1.4-0.7c0.5-0.1,1-0.3,1.6-0.4c0.6-0.1,1.2-0.2,1.9-0.3c0.7-0.1,1.3-0.2,2-0.3l-0.8,0.4
						c0-0.8-0.2-1.5-0.5-1.9c-0.4-0.4-1-0.6-1.9-0.6c-0.6,0-1.1,0.1-1.6,0.4c-0.5,0.3-0.8,0.7-1,1.3l-2-0.6c0.3-0.9,0.8-1.7,1.5-2.2
						c0.8-0.5,1.7-0.8,3-0.8c1,0,1.8,0.2,2.5,0.5s1.2,0.9,1.6,1.6c0.2,0.4,0.3,0.7,0.3,1.1s0.1,0.8,0.1,1.3V22h-1.8v-2.5l0.4,0.3
						c-0.4,0.8-1,1.4-1.7,1.8S76.2,22.3,75.2,22.3z M75.6,20.6c0.6,0,1.1-0.1,1.5-0.3s0.8-0.5,1-0.8c0.3-0.3,0.4-0.7,0.5-1
						s0.2-0.7,0.2-1.1c0-0.4,0-0.7,0-1l0.7,0.2c-0.7,0.1-1.3,0.2-1.8,0.3s-1,0.2-1.5,0.2c-0.4,0.1-0.8,0.2-1.2,0.3
						c-0.3,0.1-0.5,0.2-0.8,0.4c-0.2,0.1-0.4,0.3-0.5,0.5s-0.2,0.4-0.2,0.7s0.1,0.5,0.2,0.8c0.1,0.2,0.4,0.4,0.6,0.6
						C74.8,20.5,75.2,20.6,75.6,20.6z"/>
				</g>
				<g>
					<path class="st4" d="M83.8,22V7.3h2.1V22H83.8z"/>
				</g>
				<g>
					<path class="st4" d="M87.7,12.9v-1.7h7.4v1.7H87.7z M95,22c-0.7,0.1-1.3,0.2-2,0.2s-1.2-0.1-1.8-0.4s-0.9-0.6-1.2-1.1
						c-0.2-0.4-0.4-0.9-0.4-1.4s0-1,0-1.6V8.2h2.1v9.5c0,0.4,0,0.8,0,1.1s0.1,0.6,0.2,0.8c0.2,0.4,0.6,0.6,1.1,0.7s1.1,0,1.8-0.1V22
						H95z"/>
				</g>
				<g>
					<path class="st4" d="M98.5,26.8l2.1-5.7v1.7l-4.7-11.6h2.2l3.5,9H101l3.4-9h2.1l-6,15.6C100.5,26.8,98.5,26.8,98.5,26.8z"/>
				</g>
				<g>
					<path class="st4" d="M112,22V11.2h1.9v2.6l-0.3-0.3c0.1-0.3,0.3-0.7,0.5-1s0.5-0.5,0.7-0.7c0.3-0.2,0.6-0.4,0.9-0.5
						c0.3-0.1,0.7-0.2,1-0.2c0.4,0,0.7,0,1,0.1v2c-0.4-0.1-0.7-0.1-1.2-0.1c-0.4,0-0.8,0.2-1.2,0.4c-0.3,0.2-0.6,0.5-0.8,0.8
						s-0.3,0.7-0.4,1c-0.1,0.4-0.1,0.8-0.1,1.2V22H112z"/>
				</g>
				<g>
					<path class="st4" d="M122.5,22.3c-0.8,0-1.5-0.1-2-0.4c-0.5-0.3-0.9-0.7-1.2-1.2s-0.4-1-0.4-1.6c0-0.5,0.1-1,0.3-1.4
						s0.5-0.8,0.9-1.1s0.8-0.5,1.4-0.7c0.5-0.1,1-0.3,1.6-0.4c0.6-0.1,1.2-0.2,1.9-0.3s1.3-0.2,2-0.3l-0.8,0.4
						c0-0.8-0.2-1.5-0.5-1.9c-0.4-0.4-1-0.6-1.9-0.6c-0.6,0-1.1,0.1-1.6,0.4c-0.5,0.3-0.8,0.7-1,1.3l-1.9-0.6
						c0.3-0.9,0.8-1.7,1.5-2.2c0.8-0.5,1.7-0.8,3-0.8c1,0,1.8,0.2,2.5,0.5s1.2,0.9,1.6,1.6c0.2,0.4,0.3,0.7,0.3,1.1s0.1,0.8,0.1,1.3
						V22h-1.9v-2.5l0.4,0.3c-0.4,0.8-1,1.4-1.7,1.8S123.5,22.3,122.5,22.3z M122.8,20.6c0.6,0,1.1-0.1,1.5-0.3s0.8-0.5,1-0.8
						c0.3-0.3,0.4-0.7,0.5-1s0.2-0.7,0.2-1.1c0-0.4,0-0.7,0-1l0.7,0.2c-0.7,0.1-1.3,0.2-1.8,0.3s-1,0.2-1.5,0.2
						c-0.4,0.1-0.8,0.2-1.2,0.3c-0.3,0.1-0.5,0.2-0.8,0.4c-0.2,0.1-0.4,0.3-0.5,0.5s-0.2,0.4-0.2,0.7s0.1,0.5,0.2,0.8
						c0.1,0.2,0.4,0.4,0.6,0.6S122.4,20.6,122.8,20.6z"/>
				</g>
				<g>
					<path class="st4" d="M129.6,12.9v-1.7h7.4v1.7H129.6z M137,22c-0.7,0.1-1.3,0.2-2,0.2s-1.2-0.1-1.8-0.4s-0.9-0.6-1.2-1.1
						c-0.2-0.4-0.4-0.9-0.4-1.4s0-1,0-1.6V8.2h2.1v9.5c0,0.4,0,0.8,0,1.1s0.1,0.6,0.2,0.8c0.2,0.4,0.6,0.6,1.1,0.7s1.1,0,1.8-0.1V22
						H137z"/>
				</g>
				<g>
					<path class="st4" d="M139.4,9.4v-2h2.1v2H139.4z M139.4,22V11.2h2.1V22H139.4z"/>
				</g>
				<g>
					<path class="st4" d="M149.2,22.3c-1.1,0-2-0.2-2.8-0.7s-1.4-1.2-1.8-2c-0.4-0.9-0.6-1.8-0.6-3c0-1.1,0.2-2.1,0.7-3
						s1.1-1.5,1.8-2c0.8-0.5,1.7-0.7,2.8-0.7s2,0.2,2.8,0.7s1.4,1.2,1.8,2c0.4,0.9,0.6,1.8,0.6,3c0,1.1-0.2,2.1-0.7,3
						c-0.4,0.9-1.1,1.5-1.8,2S150.3,22.3,149.2,22.3z M149.2,20.3c1,0,1.8-0.3,2.3-1s0.8-1.6,0.8-2.7c0-1.1-0.3-2-0.8-2.7
						s-1.3-1-2.3-1c-0.7,0-1.3,0.2-1.7,0.5c-0.5,0.3-0.8,0.8-1,1.3c-0.2,0.6-0.3,1.2-0.3,1.9c0,1.1,0.3,2,0.8,2.7
						S148.2,20.3,149.2,20.3z"/>
				</g>
			</g>
		</g>
		<g id="Group_10942" transform="translate(0 4)">
			<g id="Group_10931">
				<g id="Group_10930">
					<g id="Rectangle_2419" transform="translate(0.5)">
						<g>
							<path class="st3" d="M-26-32h22c2.2,0,4,1.8,4,4v42c0,2.2-1.8,4-4,4h-22c-2.2,0-4-1.8-4-4v-42C-30-30.2-28.2-32-26-32z"/>
						</g>
						<g>
							<path class="st3" d="M-4,18h-22c-2.2,0-4-1.8-4-4v-42c0-2.2,1.8-4,4-4h22c2.2,0,4,1.8,4,4v42C0,16.2-1.8,18-4,18z M-26-31
								c-1.7,0-3,1.3-3,3v42c0,1.7,1.3,3,3,3h22c1.7,0,3-1.3,3-3v-42c0-1.7-1.3-3-3-3H-26z"/>
						</g>
					</g>
				</g>
				<g id="Rectangle_2423">
					<path class="st1" d="M-17-24.4h11c0.6,0,1,0.4,1,1l0,0c0,0.6-0.4,1-1,1h-11c-0.6,0-1-0.4-1-1l0,0C-18-23.9-17.6-24.4-17-24.4z"
						/>
				</g>
				<g id="Rectangle_2434">
					<path class="st1" d="M-17-14.4h11c0.6,0,1,0.4,1,1l0,0c0,0.6-0.4,1-1,1h-11c-0.6,0-1-0.4-1-1l0,0C-18-13.9-17.6-14.4-17-14.4z"
						/>
				</g>
				<g id="Rectangle_2435">
					<path class="st1" d="M-17-4.4h11c0.6,0,1,0.4,1,1l0,0c0,0.6-0.4,1-1,1h-11c-0.6,0-1-0.4-1-1l0,0C-18-3.9-17.6-4.4-17-4.4z"/>
				</g>
				<g id="Path_36558">
					<path class="st0" d="M-22.8-21c-0.3,0-0.6-0.2-0.8-0.4l-1.7-2.2c-0.3-0.5-0.2-1.1,0.2-1.4c0.5-0.4,1.1-0.3,1.4,0.2l0.8,1
						l1.5-2.5c0.3-0.4,0.9-0.6,1.4-0.3c0.5,0.3,0.6,0.9,0.3,1.4l-2.3,3.7C-22.1-21.2-22.5-21-22.8-21L-22.8-21z"/>
				</g>
				<g id="Path_36559">
					<path class="st0" d="M-22.8-11c-0.3,0-0.6-0.2-0.8-0.4l-1.6-2.2c-0.3-0.4-0.2-1.1,0.2-1.4s1.1-0.2,1.4,0.2l0.8,1l1.5-2.5
						c0.3-0.5,0.9-0.6,1.4-0.3c0.5,0.3,0.6,0.9,0.3,1.4l-2.4,3.7C-22.1-11.2-22.5-11-22.8-11L-22.8-11z"/>
				</g>
				<g id="Path_36560">
					<path class="st0" d="M-22.8-1c-0.3,0-0.6-0.2-0.8-0.4l-1.6-2.2C-25.5-4-25.4-4.7-25-5s1.1-0.2,1.4,0.2l0.8,1l1.5-2.5
						c0.3-0.5,0.9-0.6,1.4-0.3c0.5,0.3,0.6,0.9,0.3,1.4L-22-1.5C-22.1-1.2-22.5-1-22.8-1L-22.8-1z"/>
				</g>
			</g>
			<g id="Group_10932" transform="translate(35)">
				<g id="Group_10930-2">
					<g id="Rectangle_2419-2" transform="translate(0.5)">
						<g>
							<path class="st1" d="M-26-32h22c2.2,0,4,1.8,4,4v42c0,2.2-1.8,4-4,4h-22c-2.2,0-4-1.8-4-4v-42C-30-30.2-28.2-32-26-32z"/>
						</g>
						<g>
							<path class="st3" d="M-4,18h-22c-2.2,0-4-1.8-4-4v-42c0-2.2,1.8-4,4-4h22c2.2,0,4,1.8,4,4v42C0,16.2-1.8,18-4,18z M-26-31
								c-1.7,0-3,1.3-3,3v42c0,1.7,1.3,3,3,3h22c1.7,0,3-1.3,3-3v-42c0-1.7-1.3-3-3-3H-26z"/>
						</g>
					</g>
				</g>
				<g id="Rectangle_2423-2" transform="translate(12 7.636)">
					<g>
						<path class="st3" d="M-29-32h11c0.6,0,1,0.4,1,1l0,0c0,0.6-0.4,1-1,1h-11c-0.6,0-1-0.4-1-1l0,0C-30-31.6-29.6-32-29-32z"/>
					</g>
					<g>
						<path class="st3" d="M-18-30h-11c-0.6,0-1-0.4-1-1s0.4-1,1-1h11c0.6,0,1,0.4,1,1S-17.4-30-18-30z M-29-31.5v0.5l0,0V-31.5z"/>
					</g>
				</g>
				<g id="Rectangle_2434-2" transform="translate(12 17.636)">
					<g>
						<path class="st3" d="M-29-32h11c0.6,0,1,0.4,1,1l0,0c0,0.6-0.4,1-1,1h-11c-0.6,0-1-0.4-1-1l0,0C-30-31.6-29.6-32-29-32z"/>
					</g>
					<g>
						<path class="st3" d="M-18-30h-11c-0.6,0-1-0.4-1-1s0.4-1,1-1h11c0.6,0,1,0.4,1,1S-17.4-30-18-30z M-29-31.5v0.5l0,0V-31.5z"/>
					</g>
				</g>
				<g id="Rectangle_2435-2" transform="translate(12 27.636)">
					<g>
						<path class="st3" d="M-29-32h11c0.6,0,1,0.4,1,1l0,0c0,0.6-0.4,1-1,1h-11c-0.6,0-1-0.4-1-1l0,0C-30-31.6-29.6-32-29-32z"/>
					</g>
					<g>
						<path class="st3" d="M-18-30h-11c-0.6,0-1-0.4-1-1s0.4-1,1-1h11c0.6,0,1,0.4,1,1S-17.4-30-18-30z M-29-31.5v0.5l0,0V-31.5z"/>
					</g>
				</g>
				<g id="Path_36558-2">
					<path class="st3" d="M-22.8-21c-0.3,0-0.6-0.2-0.8-0.4l-1.7-2.2c-0.3-0.5-0.2-1.1,0.2-1.4c0.5-0.4,1.1-0.3,1.4,0.2l0.8,1
						l1.5-2.5c0.3-0.4,0.9-0.6,1.4-0.3c0.5,0.3,0.6,0.9,0.3,1.4l-2.3,3.7C-22.1-21.2-22.5-21-22.8-21L-22.8-21z"/>
				</g>
				<g id="Path_36559-2">
					<path class="st3" d="M-22.8-11c-0.3,0-0.6-0.2-0.8-0.4l-1.6-2.2c-0.3-0.4-0.2-1.1,0.2-1.4s1.1-0.2,1.4,0.2l0.8,1l1.5-2.5
						c0.3-0.5,0.9-0.6,1.4-0.3c0.5,0.3,0.6,0.9,0.3,1.4l-2.4,3.7C-22.1-11.2-22.5-11-22.8-11L-22.8-11z"/>
				</g>
				<g id="Path_36560-2">
					<path class="st3" d="M-22.8-1c-0.3,0-0.6-0.2-0.8-0.4l-1.6-2.2C-25.5-4-25.4-4.7-25-5s1.1-0.2,1.4,0.2l0.8,1l1.5-2.5
						c0.3-0.5,0.9-0.6,1.4-0.3c0.5,0.3,0.6,0.9,0.3,1.4L-22-1.5C-22.1-1.2-22.5-1-22.8-1L-22.8-1z"/>
				</g>
			</g>
			<g id="Group_10933" transform="translate(70)">
				<g id="Group_10930-3">
					<g id="Rectangle_2419-3" transform="translate(0.5)">
						<g>
							<path class="st1" d="M-26-32h22c2.2,0,4,1.8,4,4v42c0,2.2-1.8,4-4,4h-22c-2.2,0-4-1.8-4-4v-42C-30-30.2-28.2-32-26-32z"/>
						</g>
						<g>
							<path class="st3" d="M-4,18h-22c-2.2,0-4-1.8-4-4v-42c0-2.2,1.8-4,4-4h22c2.2,0,4,1.8,4,4v42C0,16.2-1.8,18-4,18z M-26-31
								c-1.7,0-3,1.3-3,3v42c0,1.7,1.3,3,3,3h22c1.7,0,3-1.3,3-3v-42c0-1.7-1.3-3-3-3H-26z"/>
						</g>
					</g>
				</g>
				<g id="Rectangle_2423-3" transform="translate(12 7.636)">
					<g>
						<path class="st3" d="M-29-32h11c0.6,0,1,0.4,1,1l0,0c0,0.6-0.4,1-1,1h-11c-0.6,0-1-0.4-1-1l0,0C-30-31.6-29.6-32-29-32z"/>
					</g>
					<g>
						<path class="st3" d="M-18-30h-11c-0.6,0-1-0.4-1-1s0.4-1,1-1h11c0.6,0,1,0.4,1,1S-17.4-30-18-30z M-29-31.5v0.5l0,0V-31.5z"/>
					</g>
				</g>
				<g id="Rectangle_2434-3" transform="translate(12 17.636)">
					<g>
						<path class="st3" d="M-29-32h11c0.6,0,1,0.4,1,1l0,0c0,0.6-0.4,1-1,1h-11c-0.6,0-1-0.4-1-1l0,0C-30-31.6-29.6-32-29-32z"/>
					</g>
					<g>
						<path class="st3" d="M-18-30h-11c-0.6,0-1-0.4-1-1s0.4-1,1-1h11c0.6,0,1,0.4,1,1S-17.4-30-18-30z M-29-31.5v0.5l0,0V-31.5z"/>
					</g>
				</g>
				<g id="Rectangle_2435-3" transform="translate(12 27.636)">
					<g>
						<path class="st3" d="M-29-32h11c0.6,0,1,0.4,1,1l0,0c0,0.6-0.4,1-1,1h-11c-0.6,0-1-0.4-1-1l0,0C-30-31.6-29.6-32-29-32z"/>
					</g>
					<g>
						<path class="st3" d="M-18-30h-11c-0.6,0-1-0.4-1-1s0.4-1,1-1h11c0.6,0,1,0.4,1,1S-17.4-30-18-30z M-29-31.5v0.5l0,0V-31.5z"/>
					</g>
				</g>
				<g id="Path_36558-3">
					<path class="st3" d="M-22.8-21c-0.3,0-0.6-0.2-0.8-0.4l-1.7-2.2c-0.3-0.5-0.2-1.1,0.2-1.4c0.5-0.4,1.1-0.3,1.4,0.2l0.8,1
						l1.5-2.5c0.3-0.4,0.9-0.6,1.4-0.3c0.5,0.3,0.6,0.9,0.3,1.4l-2.3,3.7C-22.1-21.2-22.5-21-22.8-21L-22.8-21z"/>
				</g>
				<g id="Path_36559-3">
					<path class="st3" d="M-22.8-11c-0.3,0-0.6-0.2-0.8-0.4l-1.6-2.2c-0.3-0.4-0.2-1.1,0.2-1.4s1.1-0.2,1.4,0.2l0.8,1l1.5-2.5
						c0.3-0.5,0.9-0.6,1.4-0.3c0.5,0.3,0.6,0.9,0.3,1.4l-2.4,3.7C-22.1-11.2-22.5-11-22.8-11L-22.8-11z"/>
				</g>
				<g id="Path_36560-3">
					<path class="st3" d="M-22.8-1c-0.3,0-0.6-0.2-0.8-0.4l-1.6-2.2C-25.5-4-25.4-4.7-25-5s1.1-0.2,1.4,0.2l0.8,1l1.5-2.5
						c0.3-0.5,0.9-0.6,1.4-0.3c0.5,0.3,0.6,0.9,0.3,1.4L-22-1.5C-22.1-1.2-22.5-1-22.8-1L-22.8-1z"/>
				</g>
			</g>
		</g>
	</g>
</g>
</svg>
