<?xml version="1.0" encoding="utf-8"?>
<!-- Generator: Adobe Illustrator 25.3.1, SVG Export Plug-In . SVG Version: 6.00 Build 0)  -->
<svg version="1.1" id="Layer_1" xmlns="http://www.w3.org/2000/svg" xmlns:xlink="http://www.w3.org/1999/xlink" x="0px" y="0px"
	 viewBox="0 0 290 354" style="enable-background:new 0 0 290 354;" xml:space="preserve">
<style type="text/css">
	.st0{fill:#F5FAFF;}
	.st1{fill:#FFFFFF;}
	.st2{enable-background:new    ;}
	.st3{fill:#007FFF;}
	.st4{fill:#0B1445;}
	.st5{fill:#BBBFD6;}
</style>
<g id="Group_11636" transform="translate(-319 -857)">
	<g transform="matrix(1, 0, 0, 1, 319, 857)">
		<g>
			<g id="Rectangle_2446-2_1_">
				<rect class="st0" width="290" height="354"/>
			</g>
		</g>
	</g>
	<g id="Group_10944" transform="translate(364 1060.999)">
		<g transform="matrix(1, 0, 0, 1, -45, -204)">
			<g>
				<g id="Rectangle_2450-2_1_">
					<rect x="15" y="174" class="st1" width="260" height="70"/>
				</g>
			</g>
		</g>
		<g id="Group_10947" transform="translate(23.264 18.889)">
			<g id="Group_10940" transform="translate(23.737 0)">
				<g class="st2">
					<g>
						<path class="st3" d="M15.8-6v-5.3L11.4-19h2.5l3,5.2l3-5.2h2.5L18-11.3V-6H15.8z"/>
					</g>
					<g>
						<path class="st3" d="M26.5-5.7c-1,0-1.8-0.2-2.5-0.7c-0.7-0.4-1.3-1-1.7-1.8s-0.6-1.7-0.6-2.7s0.2-1.9,0.6-2.7
							c0.4-0.8,1-1.4,1.7-1.8c0.7-0.4,1.6-0.6,2.5-0.6c1,0,1.8,0.2,2.6,0.7c0.7,0.4,1.3,1,1.7,1.8s0.6,1.7,0.6,2.7s-0.2,1.9-0.6,2.7
							c-0.4,0.8-1,1.4-1.7,1.8C28.4-5.9,27.5-5.7,26.5-5.7z M26.5-7.8c0.9,0,1.5-0.3,1.9-0.9S29-10,29-10.9c0-0.9-0.2-1.7-0.6-2.3
							c-0.4-0.5-1-0.8-1.9-0.8c-0.6,0-1.1,0.1-1.4,0.4c-0.4,0.3-0.7,0.6-0.8,1.1c-0.2,0.5-0.3,1-0.3,1.6c0,0.9,0.2,1.7,0.6,2.3
							C25.1-8,25.7-7.8,26.5-7.8z"/>
					</g>
					<g>
						<path class="st3" d="M37-5.7c-0.7,0-1.3-0.1-1.8-0.4c-0.5-0.2-0.8-0.5-1.1-0.9s-0.5-0.8-0.6-1.2c-0.1-0.4-0.2-0.8-0.3-1.2
							c0-0.4-0.1-0.7-0.1-0.9v-5.4h2.2v4.7c0,0.3,0,0.6,0.1,1s0.1,0.7,0.3,1.1c0.2,0.3,0.4,0.6,0.7,0.9c0.3,0.2,0.7,0.3,1.2,0.3
							c0.3,0,0.5,0,0.8-0.1s0.5-0.2,0.7-0.5c0.2-0.2,0.4-0.5,0.5-0.9s0.2-0.9,0.2-1.5l1.3,0.5c0,0.8-0.2,1.6-0.5,2.2
							s-0.8,1.2-1.4,1.6C38.7-5.9,37.9-5.7,37-5.7z M40.2-6v-3h-0.3v-6.7h2.2V-6H40.2z"/>
					</g>
					<g>
						<path class="st3" d="M44.6-6v-9.7h1.9v2.4l-0.2-0.3c0.1-0.3,0.3-0.6,0.5-0.9c0.2-0.3,0.4-0.5,0.7-0.7c0.2-0.2,0.5-0.3,0.8-0.4
							c0.3-0.1,0.6-0.1,0.9-0.2c0.3,0,0.6,0,0.9,0v2c-0.3-0.1-0.6-0.1-1-0.1s-0.7,0.1-1,0.3c-0.3,0.2-0.5,0.4-0.7,0.6
							s-0.4,0.7-0.5,1s-0.1,0.7-0.1,1v5H44.6z"/>
					</g>
					<g>
						<path class="st3" d="M55.4-6v-13h5.4c0.1,0,0.3,0,0.5,0s0.4,0,0.5,0.1c0.8,0.1,1.4,0.4,1.9,0.7c0.5,0.4,0.9,0.9,1.1,1.5
							s0.4,1.2,0.4,1.9s-0.1,1.4-0.4,1.9c-0.2,0.6-0.6,1.1-1.1,1.5s-1.1,0.6-1.8,0.7c-0.2,0-0.4,0-0.6,0.1s-0.4,0-0.5,0h-3.2V-6
							H55.4z M57.6-12.6h3.1c0.1,0,0.3,0,0.4,0s0.3,0,0.4-0.1c0.4-0.1,0.6-0.2,0.8-0.5c0.2-0.2,0.4-0.5,0.4-0.8
							c0.1-0.3,0.1-0.6,0.1-0.8c0-0.3,0-0.6-0.1-0.9s-0.2-0.5-0.4-0.8c-0.2-0.2-0.5-0.4-0.8-0.5c-0.1,0-0.3-0.1-0.4-0.1
							c-0.2,0-0.3,0-0.4,0h-3.1V-12.6z"/>
					</g>
					<g>
						<path class="st3" d="M66.9-6v-9.7h1.9v2.4l-0.2-0.3c0.1-0.3,0.3-0.6,0.5-0.9c0.2-0.3,0.4-0.5,0.7-0.7c0.2-0.2,0.5-0.3,0.8-0.4
							c0.3-0.1,0.6-0.1,0.9-0.2c0.3,0,0.6,0,0.9,0v2c-0.3-0.1-0.6-0.1-1-0.1s-0.7,0.1-1,0.3c-0.3,0.2-0.5,0.4-0.7,0.6
							c-0.2,0.3-0.3,0.5-0.4,0.9s-0.1,0.7-0.1,1V-6H66.9z"/>
					</g>
					<g>
						<path class="st3" d="M78.2-5.7c-1,0-1.8-0.2-2.5-0.7c-0.7-0.4-1.3-1-1.7-1.8c-0.4-0.8-0.6-1.7-0.6-2.7s0.2-1.9,0.6-2.7
							c0.4-0.8,1-1.4,1.7-1.8c0.7-0.4,1.6-0.6,2.5-0.6c1,0,1.8,0.2,2.6,0.7c0.7,0.4,1.3,1,1.7,1.8c0.4,0.8,0.6,1.7,0.6,2.7
							s-0.2,1.9-0.6,2.7c-0.4,0.8-1,1.4-1.7,1.8C80-5.9,79.2-5.7,78.2-5.7z M78.2-7.8c0.9,0,1.5-0.3,1.9-0.9s0.6-1.3,0.6-2.2
							c0-0.9-0.2-1.7-0.6-2.3C79.7-13.8,79-14,78.2-14c-0.6,0-1.1,0.1-1.4,0.4S76.1-13,76-12.5c-0.2,0.5-0.3,1-0.3,1.6
							c0,0.9,0.2,1.7,0.6,2.3C76.7-8,77.4-7.8,78.2-7.8z"/>
					</g>
					<g>
						<path class="st3" d="M89.3-5.7c-1,0-1.9-0.2-2.6-0.7s-1.2-1.1-1.6-1.8c-0.4-0.8-0.6-1.6-0.6-2.6s0.2-1.9,0.6-2.7
							c0.4-0.8,0.9-1.4,1.7-1.8c0.7-0.4,1.6-0.7,2.5-0.7c1.1,0,2,0.3,2.8,0.8c0.8,0.6,1.3,1.3,1.5,2.3l-2.2,0.6
							c-0.2-0.5-0.4-0.9-0.8-1.2c-0.4-0.3-0.8-0.4-1.3-0.4c-0.6,0-1,0.1-1.4,0.4s-0.6,0.6-0.8,1.1c-0.2,0.5-0.3,1-0.3,1.6
							c0,0.9,0.2,1.7,0.6,2.2c0.4,0.6,1,0.9,1.8,0.9c0.6,0,1-0.1,1.4-0.4c0.3-0.3,0.6-0.6,0.8-1.1l2.2,0.5c-0.3,1-0.8,1.8-1.6,2.3
							S90.3-5.7,89.3-5.7z"/>
					</g>
					<g>
						<path class="st3" d="M99.5-5.7c-1,0-1.8-0.2-2.6-0.6s-1.3-1-1.7-1.8c-0.4-0.8-0.6-1.6-0.6-2.6c0-1.1,0.2-2,0.6-2.8
							c0.4-0.8,1-1.4,1.7-1.8c0.7-0.4,1.6-0.6,2.5-0.6c1,0,1.9,0.2,2.6,0.7c0.7,0.5,1.2,1.1,1.6,2c0.3,0.9,0.5,1.9,0.4,3h-2.2V-11
							c0-1.1-0.2-1.8-0.6-2.3c-0.4-0.5-0.9-0.7-1.7-0.7c-0.9,0-1.5,0.3-2,0.8c-0.4,0.5-0.6,1.4-0.6,2.4s0.2,1.7,0.6,2.3
							c0.4,0.5,1.1,0.8,1.9,0.8c0.5,0,1-0.1,1.4-0.4c0.4-0.2,0.7-0.6,0.9-1l2.1,0.6c-0.4,0.9-0.9,1.6-1.7,2S100.5-5.7,99.5-5.7z
							 M96.2-10.3v-1.6h6.7v1.6H96.2z"/>
					</g>
					<g>
						<path class="st3" d="M110.4-5.7c-1,0-1.8-0.2-2.6-0.6s-1.3-1-1.7-1.8s-0.6-1.6-0.6-2.6c0-1.1,0.2-2,0.6-2.8
							c0.4-0.8,1-1.4,1.7-1.8c0.7-0.4,1.6-0.6,2.5-0.6c1,0,1.9,0.2,2.6,0.7c0.7,0.5,1.2,1.1,1.6,2c0.3,0.9,0.5,1.9,0.4,3h-2.2V-11
							c0-1.1-0.2-1.8-0.6-2.3c-0.4-0.5-0.9-0.7-1.7-0.7c-0.9,0-1.5,0.3-2,0.8c-0.4,0.5-0.6,1.4-0.6,2.4s0.2,1.7,0.6,2.3
							c0.4,0.5,1.1,0.8,1.9,0.8c0.5,0,1-0.1,1.4-0.4c0.4-0.2,0.7-0.6,0.9-1l2.1,0.6c-0.4,0.9-0.9,1.6-1.7,2S111.3-5.7,110.4-5.7z
							 M107-10.3v-1.6h6.7v1.6H107z"/>
					</g>
					<g>
						<path class="st3" d="M120.7-5.7c-0.9,0-1.7-0.2-2.3-0.7s-1.2-1.1-1.5-1.8c-0.4-0.8-0.5-1.6-0.5-2.6s0.2-1.9,0.6-2.6
							c0.4-0.8,0.9-1.4,1.6-1.8c0.7-0.4,1.5-0.7,2.4-0.7s1.7,0.2,2.3,0.7s1.1,1.1,1.4,1.8c0.3,0.8,0.5,1.7,0.5,2.6
							c0,1-0.2,1.8-0.5,2.6c-0.3,0.8-0.8,1.4-1.4,1.8C122.4-6,121.6-5.7,120.7-5.7z M121-7.7c0.6,0,1.1-0.1,1.4-0.4
							c0.4-0.3,0.6-0.6,0.8-1.1s0.2-1,0.2-1.7c0-0.6-0.1-1.2-0.2-1.7c-0.2-0.5-0.4-0.8-0.8-1.1s-0.8-0.4-1.3-0.4
							c-0.6,0-1.1,0.1-1.4,0.4s-0.7,0.7-0.8,1.2c-0.2,0.5-0.3,1-0.3,1.6s0.1,1.1,0.3,1.6s0.4,0.9,0.8,1.1C120-7.8,120.5-7.7,121-7.7
							z M123.5-6v-6.8h-0.3V-19h2.2v13H123.5z"/>
					</g>
					<g>
						<path class="st3" d="M131.7-5.7c-1.2,0-2.2-0.3-2.9-0.8s-1.2-1.3-1.4-2.3l2.2-0.3c0.1,0.5,0.4,0.9,0.8,1.1
							c0.4,0.3,0.9,0.4,1.5,0.4c0.5,0,0.9-0.1,1.2-0.3c0.3-0.2,0.4-0.5,0.4-0.9c0-0.2-0.1-0.4-0.2-0.5c-0.1-0.1-0.3-0.3-0.7-0.4
							s-0.9-0.3-1.6-0.5c-0.8-0.2-1.5-0.4-1.9-0.7c-0.5-0.2-0.8-0.5-1-0.9s-0.3-0.8-0.3-1.2c0-0.6,0.2-1.1,0.5-1.6s0.8-0.8,1.3-1
							c0.6-0.2,1.2-0.4,2-0.4s1.4,0.1,2,0.4c0.6,0.2,1.1,0.6,1.4,1c0.4,0.4,0.6,0.9,0.7,1.5l-2.2,0.4c-0.1-0.4-0.2-0.7-0.6-1
							c-0.3-0.2-0.7-0.4-1.3-0.4c-0.5,0-0.9,0-1.2,0.2s-0.5,0.4-0.5,0.8c0,0.2,0.1,0.3,0.2,0.5s0.4,0.3,0.8,0.4
							c0.4,0.1,0.9,0.3,1.7,0.5s1.4,0.4,1.9,0.7s0.8,0.6,1,0.9c0.2,0.4,0.3,0.8,0.3,1.3c0,1-0.4,1.7-1.1,2.3
							C133.9-6,132.9-5.7,131.7-5.7z"/>
					</g>
				</g>
				<g id="Group_10948" transform="translate(0)">
					<g id="Path_36557">
						<path class="st3" d="M4.7-15.6l-3.6-3.1v-8.4c0-0.5-0.4-1-1-1l0,0h-3.9c-0.5,0-1,0.4-1,1l0,0v3.1l-6.2-5.4
							c-0.5-0.4-1-0.6-1.6-0.6s-1.2,0.2-1.6,0.6l-15.5,13.8c-0.2,0.2-0.3,0.4-0.3,0.7c0,0.2,0.1,0.5,0.2,0.7l1.3,1.4
							c0.2,0.2,0.5,0.3,0.7,0.3c0.2,0,0.5-0.1,0.7-0.2l1-0.9v12.8c0,1.1,0.9,1.9,1.9,1.9l0,0h23.3C0.2,1.1,1,0.2,1-0.8l0,0v-12.8
							l1,0.9c0.2,0.1,0.4,0.2,0.7,0.2s0.5-0.1,0.7-0.3l1.3-1.4c0.1-0.2,0.2-0.4,0.2-0.6C5-15.2,4.9-15.4,4.7-15.6z M-12.5-19.3
							c2.1,0,3.9,1.7,3.9,3.9s-1.7,3.9-3.9,3.9s-3.9-1.7-3.9-3.9l0,0C-16.4-17.6-14.6-19.3-12.5-19.3z M-5.7-2.8h-13.6
							c-0.5,0-1-0.4-1-1l0,0c0-3.2,2.6-5.8,5.8-5.8h3.9c3.2,0,5.8,2.6,5.8,5.8C-4.7-3.2-5.2-2.8-5.7-2.8z"/>
					</g>
				</g>
			</g>
		</g>
	</g>
	<g class="st2">
		<g>
			<path class="st4" d="M396.9,1017v-15.1h6.4c0.1,0,0.3,0,0.6,0s0.5,0,0.7,0.1c0.9,0.1,1.6,0.4,2.2,0.9s1,1,1.3,1.7
				s0.4,1.5,0.4,2.3c0,1.3-0.3,2.4-0.9,3.2c-0.6,0.9-1.6,1.5-3,1.7l-1.3,0.1h-3.5v5.1L396.9,1017L396.9,1017z M399.8,1009.2h3.4
				c0.1,0,0.3,0,0.5,0s0.3,0,0.5-0.1c0.4-0.1,0.7-0.3,0.9-0.5c0.2-0.2,0.4-0.5,0.4-0.8c0.1-0.3,0.1-0.6,0.1-0.9s0-0.6-0.1-0.9
				s-0.2-0.6-0.4-0.8c-0.2-0.2-0.5-0.4-0.9-0.5c-0.1,0-0.3-0.1-0.5-0.1s-0.3,0-0.5,0h-3.4V1009.2z M405.5,1017l-3-6.2l2.9-0.6
				l3.3,6.7L405.5,1017L405.5,1017z"/>
		</g>
		<g>
			<path class="st4" d="M410.6,1017v-15.1h9.9v2.7h-7v3.2h5.8v2.7h-5.8v3.9h7v2.7L410.6,1017L410.6,1017z"/>
		</g>
		<g>
			<path class="st4" d="M422.5,1017v-15.1h2.9l6.6,10.1v-10.1h2.9v15.1H432l-6.6-10.1v10.1H422.5z"/>
		</g>
		<g>
			<path class="st4" d="M440.9,1017v-12.5h-4.8v-2.7h12.4v2.7h-4.8v12.5H440.9z"/>
		</g>
		<g>
			<path class="st4" d="M453.2,1017v-15.1h2.9v15.1H453.2z"/>
		</g>
		<g>
			<path class="st4" d="M458.8,1017v-15.1h2.9l6.6,10.1v-10.1h2.9v15.1h-2.9l-6.6-10.1v10.1H458.8z"/>
		</g>
		<g>
			<path class="st4" d="M480.1,1017.3c-1.5,0-2.8-0.3-3.9-1s-1.9-1.6-2.5-2.8c-0.6-1.2-0.9-2.6-0.9-4.1c0-1.6,0.3-2.9,0.9-4.1
				s1.4-2.1,2.5-2.8c1.1-0.7,2.4-1,3.9-1c1.7,0,3.2,0.4,4.4,1.3s2,2,2.5,3.5l-2.9,0.8c-0.3-0.9-0.8-1.6-1.4-2.1
				c-0.7-0.5-1.5-0.8-2.6-0.8c-1,0-1.8,0.2-2.4,0.6s-1.1,1-1.4,1.8s-0.5,1.7-0.5,2.7s0.2,2,0.5,2.7c0.3,0.8,0.8,1.4,1.4,1.8
				s1.4,0.6,2.4,0.6c1.1,0,1.9-0.3,2.6-0.8s1.1-1.2,1.4-2.1l2.9,0.8c-0.5,1.5-1.3,2.6-2.5,3.5
				C483.3,1016.9,481.9,1017.3,480.1,1017.3z"/>
		</g>
		<g>
			<path class="st4" d="M495.4,1017.3c-1.5,0-2.8-0.3-3.9-1c-1.1-0.7-1.9-1.6-2.5-2.8c-0.6-1.2-0.9-2.6-0.9-4.1
				c0-1.6,0.3-2.9,0.9-4.1s1.4-2.1,2.5-2.8c1.1-0.7,2.4-1,3.9-1s2.8,0.3,3.9,1c1.1,0.7,1.9,1.6,2.5,2.8s0.9,2.6,0.9,4.1
				c0,1.6-0.3,2.9-0.9,4.1c-0.6,1.2-1.4,2.1-2.5,2.8S496.9,1017.3,495.4,1017.3z M495.4,1014.6c1,0,1.8-0.2,2.4-0.6
				c0.6-0.4,1.1-1,1.4-1.8c0.3-0.8,0.5-1.7,0.5-2.8c0-1.1-0.2-2-0.5-2.7c-0.3-0.8-0.8-1.4-1.4-1.8c-0.6-0.4-1.4-0.6-2.4-0.7
				c-1,0-1.8,0.2-2.4,0.6c-0.6,0.4-1.1,1-1.4,1.8c-0.3,0.8-0.5,1.7-0.5,2.8c0,1,0.2,2,0.5,2.7c0.3,0.8,0.8,1.4,1.4,1.8
				S494.4,1014.6,495.4,1014.6z"/>
		</g>
		<g>
			<path class="st4" d="M504.4,1017v-15.1h2.6l5,10l5-10h2.6v15.1h-2.7v-9l-4.4,9h-1l-4.4-9v9H504.4z"/>
		</g>
		<g>
			<path class="st4" d="M522,1017v-15.1h9.9v2.7h-7v3.2h5.8v2.7h-5.8v3.9h7v2.7L522,1017L522,1017z"/>
		</g>
	</g>
	<g id="Group_10943" transform="translate(364 1140.999)">
		<g transform="matrix(1, 0, 0, 1, -45, -284)">
			<g>
				<g id="Rectangle_2447-2_1_">
					<rect x="15" y="254" class="st1" width="260" height="70"/>
				</g>
			</g>
		</g>
		<g id="Group_10939" transform="translate(67 18)">
			<g class="st2">
				<g>
					<path class="st5" d="M-5.5-5.2v-13h5.4c0.1,0,0.3,0,0.5,0s0.4,0,0.5,0.1c0.8,0.1,1.4,0.4,1.9,0.7c0.5,0.4,0.9,0.9,1.1,1.5
						c0.2,0.6,0.4,1.2,0.4,1.9c0,1.1-0.3,2-0.8,2.7S2.1-10,1-9.8L0.1-9.7h-3.3v4.5C-3.2-5.2-5.5-5.2-5.5-5.2z M-3.3-11.8h3.1
						c0.1,0,0.3,0,0.4,0s0.3,0,0.4-0.1C1-12,1.2-12.1,1.5-12.4c0.2-0.2,0.4-0.5,0.4-0.8C2-13.5,2-13.8,2-14c0-0.3,0-0.6-0.1-0.9
						c-0.1-0.3-0.2-0.5-0.4-0.8C1.3-15.8,1-16,0.6-16c-0.1,0-0.3-0.1-0.4-0.1c-0.2,0-0.3,0-0.4,0h-3.1V-11.8z M2-5.2l-2.6-5.3
						L1.6-11l2.8,5.8H2z"/>
				</g>
				<g>
					<path class="st5" d="M10.7-4.9c-1,0-1.8-0.2-2.5-0.7C7.5-6,6.9-6.6,6.5-7.4s-0.6-1.7-0.6-2.7s0.2-1.9,0.6-2.7
						c0.4-0.8,1-1.4,1.7-1.8c0.7-0.4,1.6-0.6,2.5-0.6c1,0,1.8,0.2,2.6,0.7c0.7,0.4,1.3,1,1.7,1.8s0.6,1.7,0.6,2.7S15.4-8.1,15-7.3
						c-0.4,0.8-1,1.4-1.7,1.8C12.5-5.1,11.7-4.9,10.7-4.9z M10.7-7c0.9,0,1.5-0.3,1.9-0.9s0.6-1.3,0.6-2.2c0-0.9-0.2-1.7-0.6-2.3
						c-0.4-0.6-1.1-0.8-1.9-0.8c-0.6,0-1.1,0.1-1.4,0.4c-0.4,0.3-0.7,0.6-0.8,1.1c-0.2,0.5-0.3,1-0.3,1.6c0,0.9,0.2,1.7,0.6,2.3
						C9.3-7.2,9.9-7,10.7-7z"/>
				</g>
				<g>
					<path class="st5" d="M18.5-0.9L20.4-6v1.5l-4.2-10.4h2.3l3,7.7h-0.6l2.9-7.7H26l-5.4,14C20.6-0.9,18.5-0.9,18.5-0.9z"/>
				</g>
				<g>
					<path class="st5" d="M29.6-4.9c-0.7,0-1.3-0.1-1.8-0.4s-0.9-0.6-1.1-1.1c-0.2-0.4-0.4-0.9-0.4-1.5c0-0.5,0.1-0.9,0.2-1.3
						c0.2-0.4,0.4-0.7,0.7-1s0.7-0.5,1.3-0.7c0.4-0.1,0.8-0.2,1.4-0.3c0.5-0.1,1.1-0.2,1.7-0.3c0.6-0.1,1.3-0.2,1.9-0.3l-0.8,0.4
						c0-0.7-0.1-1.2-0.4-1.5c-0.3-0.3-0.8-0.5-1.5-0.5c-0.4,0-0.9,0.1-1.3,0.3c-0.4,0.2-0.7,0.6-0.9,1.1l-2-0.6
						c0.2-0.8,0.7-1.5,1.4-2s1.6-0.7,2.7-0.7c0.9,0,1.6,0.1,2.3,0.4c0.7,0.3,1.1,0.7,1.5,1.4c0.2,0.3,0.3,0.7,0.3,1
						c0,0.4,0.1,0.7,0.1,1.2v6H33v-2.1l0.3,0.3c-0.4,0.7-0.9,1.2-1.5,1.5S30.5-4.9,29.6-4.9z M30-6.7c0.5,0,0.9-0.1,1.3-0.3
						s0.6-0.4,0.8-0.6s0.3-0.5,0.4-0.7c0.1-0.3,0.2-0.6,0.2-0.9c0-0.4,0-0.6,0-0.9l0.7,0.2c-0.7,0.1-1.2,0.2-1.7,0.3
						c-0.5,0.1-0.9,0.2-1.2,0.2c-0.3,0.1-0.6,0.1-0.9,0.2C29.3-9.1,29.1-9,29-8.9c-0.2,0.1-0.3,0.3-0.4,0.4
						c-0.1,0.2-0.1,0.3-0.1,0.5c0,0.2,0.1,0.5,0.2,0.6C28.8-7.2,29-7.1,29.2-7C29.4-6.7,29.7-6.7,30-6.7z"/>
				</g>
				<g>
					<path class="st5" d="M37.4-5.2v-13.2h2.2v13.2H37.4z"/>
				</g>
				<g>
					<path class="st5" d="M41.2-13.2v-1.7H48v1.7H41.2z M48-5.2C47.4-5.1,46.7-5,46.1-5s-1.2-0.1-1.7-0.3s-0.9-0.6-1.1-1
						S43-7.1,42.9-7.6c0-0.4,0-0.9,0-1.5v-8.5h2.2v8.3c0,0.4,0,0.7,0,1c0,0.3,0.1,0.5,0.2,0.7c0.2,0.4,0.6,0.6,1,0.6s1,0,1.6-0.1
						v1.9H48z"/>
				</g>
				<g>
					<path class="st5" d="M51.1-0.9L53-6v1.5l-4.2-10.4H51l3,7.7h-0.6l2.9-7.7h2.2l-5.4,14C53.1-0.9,51.1-0.9,51.1-0.9z"/>
				</g>
				<g>
					<path class="st5" d="M66.6-12c-0.6,0-1.1-0.1-1.6-0.4s-0.9-0.7-1.2-1.2s-0.4-1-0.4-1.6s0.2-1.1,0.5-1.6s0.7-0.9,1.2-1.2
						c0.5-0.3,1-0.4,1.6-0.4s1.1,0.1,1.6,0.4s0.9,0.7,1.2,1.2c0.3,0.5,0.4,1,0.4,1.6s-0.1,1.1-0.4,1.6s-0.7,0.9-1.2,1.2
						C67.7-12.1,67.2-12,66.6-12z M65.3-5.2l-1.4-1.4l11.5-11.5l1.4,1.4L65.3-5.2z M66.6-13.8c0.3,0,0.5-0.1,0.7-0.2
						s0.4-0.3,0.5-0.5s0.2-0.4,0.2-0.7s-0.1-0.5-0.2-0.7c-0.1-0.2-0.3-0.4-0.5-0.5s-0.4-0.2-0.7-0.2s-0.5,0.1-0.7,0.2
						c-0.2,0.1-0.4,0.3-0.5,0.5c-0.1,0.2-0.2,0.4-0.2,0.7s0.1,0.5,0.2,0.7s0.3,0.4,0.5,0.5S66.3-13.8,66.6-13.8z M74.1-4.9
						c-0.6,0-1.1-0.1-1.6-0.4S71.6-6,71.3-6.5c-0.3-0.5-0.4-1-0.4-1.6s0.1-1.1,0.5-1.6c0.3-0.5,0.7-0.9,1.2-1.2s1-0.4,1.6-0.4
						s1.1,0.1,1.6,0.4s0.9,0.7,1.2,1.2s0.4,1,0.4,1.6S77.3-7,77-6.5s-0.7,0.9-1.2,1.2C75.3-5.1,74.7-4.9,74.1-4.9z M74.1-6.8
						c0.3,0,0.5-0.1,0.7-0.2s0.4-0.3,0.5-0.5s0.2-0.4,0.2-0.7c0-0.3-0.1-0.5-0.2-0.7S75-9.3,74.8-9.4s-0.4-0.2-0.7-0.2
						s-0.5,0.1-0.7,0.2S73-9.1,72.9-8.9s-0.2,0.4-0.2,0.7c0,0.3,0.1,0.5,0.2,0.7s0.3,0.4,0.5,0.5S73.9-6.8,74.1-6.8z"/>
				</g>
			</g>
			<g id="Group_10925">
				<g id="Path_36434">
					<path class="st5" d="M-35.4-7.7V5l0,0l0,0h1.5l0,0l0,0V-6c0-0.8,0.5-1.6,1.4-1.7c0.9-0.1,1.7,0.5,1.8,1.3c0,0.1,0,0.2,0,0.2V5
						l0,0l0,0h1.5l0,0l0,0V-7.7l-3.2-3.2L-35.4-7.7z"/>
				</g>
				<g id="Path_36435">
					<path class="st5" d="M-32.2-14.1l3.2-3.2v-12.2c0-0.3-0.3-0.5-0.6-0.5h-0.5c-0.3,0-0.5,0.2-0.5,0.5V-19c0,0.8-0.5,1.6-1.4,1.7
						c-0.9,0.1-1.7-0.5-1.8-1.3c0-0.1,0-0.2,0-0.2v-10.7c0-0.3-0.3-0.5-0.5-0.5h-0.5c-0.3,0-0.5,0.2-0.5,0.5v12.2L-32.2-14.1z"/>
				</g>
				<g id="Path_36436">
					<path class="st5" d="M-25.7-14.1h10.5c0.3,0,0.5-0.2,0.5-0.5v-0.5c0-0.3-0.2-0.5-0.5-0.5h-12.2l-3.2,3.2l3.2,3.2h12.2
						c0.3,0,0.5-0.2,0.5-0.5v-0.5c0-0.3-0.2-0.5-0.5-0.5h-10.7c-0.9,0-1.6-0.7-1.6-1.6c0-0.1,0-0.2,0-0.2
						C-27.3-13.5-26.6-14.1-25.7-14.1z"/>
				</g>
				<g id="Path_36437">
					<path class="st5" d="M-37-15.7h-12.2c-0.3,0-0.5,0.2-0.5,0.5v0.5c0,0.3,0.2,0.5,0.5,0.5h10.5c0.8,0,1.6,0.5,1.7,1.4
						c0.1,0.9-0.5,1.7-1.3,1.8c-0.1,0-0.2,0-0.2,0h-10.6c-0.3,0-0.5,0.2-0.5,0.5v0.5c0,0.3,0.2,0.5,0.5,0.5H-37l3.2-3.2L-37-15.7z"
						/>
				</g>
				<g id="Path_36438">
					<path class="st5" d="M-39.8-7.7H-46c-0.3,0-0.5,0.2-0.5,0.5v0.5c0,0.3,0.2,0.5,0.5,0.5h3.5l-3.6,3.6c-0.2,0.2-0.2,0.5,0,0.7
						c0.1,0.1,0.2,0.3,0.3,0.4c0.2,0.2,0.5,0.2,0.8,0l0,0l6.3-6.3L-39.8-7.7L-39.8-7.7z"/>
				</g>
				<g id="Path_36439">
					<path class="st5" d="M-43.4,0.2c-0.2,0.2-0.2,0.6,0,0.8l0,0l0.4,0.3c0.2,0.2,0.5,0.1,0.7,0l3.6-3.6v3.6c0,0.3,0.2,0.5,0.5,0.5
						h0.5c0.3,0,0.5-0.2,0.5-0.5v-7.4L-43.4,0.2z"/>
				</g>
				<g id="Path_36440">
					<path class="st5" d="M-27.4-6v7.3c0,0.3,0.2,0.5,0.5,0.5h0.5c0.3,0,0.5-0.2,0.5-0.5v-3.5l3.6,3.6c0.2,0.2,0.5,0.2,0.7,0
						c0.1-0.1,0.3-0.2,0.4-0.3c0.2-0.2,0.2-0.5,0-0.8l0,0L-27.4-6z"/>
				</g>
				<g id="Path_36441">
					<path class="st5" d="M-18.4-7.7h-7.5l6.4,6.4c0.2,0.2,0.6,0.2,0.8,0l0,0l0.3-0.4c0.2-0.2,0.1-0.5,0-0.7L-22-6.1h3.6
						c0.3,0,0.5-0.2,0.5-0.5v-0.5C-17.9-7.5-18.1-7.7-18.4-7.7z"/>
				</g>
				<g id="Path_36442">
					<path class="st5" d="M-24.7-17.3h6.2c0.3,0,0.5-0.2,0.5-0.5v-0.5c0-0.3-0.2-0.5-0.5-0.5h-3.4l3.6-3.6c0.2-0.2,0.2-0.5,0-0.7
						c-0.1-0.1-0.2-0.3-0.3-0.4c-0.2-0.2-0.5-0.2-0.8,0l0,0l-6.3,6.3h1V-17.3z"/>
				</g>
				<g id="Path_36443">
					<path class="st5" d="M-21.1-25.2c0.2-0.2,0.2-0.6,0-0.8l0,0l-0.4-0.4c-0.2-0.1-0.5-0.1-0.7,0.1l-3.7,3.6v-3.6
						c0-0.3-0.2-0.5-0.5-0.5h-0.5c-0.3,0-0.5,0.2-0.5,0.5v7.4L-21.1-25.2z"/>
				</g>
				<g id="Path_36444">
					<path class="st5" d="M-37-19v-7.3c0-0.3-0.2-0.5-0.5-0.5H-38c-0.3,0-0.5,0.2-0.5,0.5v3.5l-3.6-3.6c-0.2-0.2-0.5-0.2-0.7,0
						c-0.1,0.1-0.3,0.2-0.4,0.3c-0.2,0.2-0.2,0.5,0,0.8l0,0L-37-19z"/>
				</g>
				<g id="Path_36445">
					<path class="st5" d="M-46-17.3h7.4l-6.4-6.4c-0.2-0.2-0.6-0.2-0.8,0l0,0l-0.3,0.4c-0.2,0.2-0.1,0.5,0,0.7l3.6,3.6H-46
						c-0.3,0-0.5,0.2-0.5,0.5v0.5C-46.5-17.5-46.3-17.3-46-17.3z"/>
				</g>
			</g>
		</g>
	</g>
	<g id="Union_4">
		<path class="st1" d="M444,966H319V857h290v109H484l-20,20L444,966z"/>
	</g>
	<g id="Group_10945" transform="translate(373.5 911)">
		<g id="Group_10941" transform="translate(85 -2.001)">
			<g class="st2">
				<g>
					<path class="st4" d="M-24.4-2v-15.1h6.4c0.1,0,0.3,0,0.6,0s0.5,0,0.7,0.1c0.9,0.1,1.6,0.4,2.2,0.9c0.6,0.5,1,1,1.3,1.7
						s0.4,1.5,0.4,2.3c0,1.3-0.3,2.4-0.9,3.2c-0.6,0.9-1.6,1.5-3,1.7L-18-7.1h-3.6V-2H-24.4z M-21.6-9.8h3.4c0.1,0,0.3,0,0.5,0
						s0.3,0,0.5-0.1c0.4-0.1,0.7-0.3,0.9-0.5s0.4-0.5,0.4-0.8c0.1-0.3,0.1-0.6,0.1-0.9s0-0.6-0.1-0.9s-0.2-0.6-0.4-0.8
						c-0.2-0.2-0.5-0.4-0.9-0.5c-0.1,0-0.3-0.1-0.5-0.1s-0.3,0-0.5,0h-3.4V-9.8z M-15.9-2l-3-6.2l2.9-0.6l3.3,6.7h-3.2V-2z"/>
				</g>
				<g>
					<path class="st4" d="M-10.4-2v-15.1h9.9v2.7h-7v3.2h5.8v2.7h-5.8v3.9h7V-2H-10.4z"/>
				</g>
				<g>
					<path class="st4" d="M2-2v-15.1h2.9L11.5-7v-10.1h2.9V-2h-2.9L4.9-12.1V-2H2z"/>
				</g>
				<g>
					<path class="st4" d="M20.8-2v-12.5H16v-2.7h12.4v2.7h-4.8V-2H20.8z"/>
				</g>
				<g>
					<path class="st4" d="M33.7-2v-15.1h6.4c0.1,0,0.3,0,0.6,0c0.2,0,0.5,0,0.7,0.1c0.9,0.1,1.6,0.4,2.2,0.9s1,1,1.3,1.7
						s0.4,1.5,0.4,2.3s-0.1,1.6-0.4,2.3s-0.7,1.3-1.3,1.7c-0.6,0.5-1.3,0.8-2.2,0.9c-0.2,0-0.4,0-0.7,0.1c-0.3,0-0.4,0-0.6,0h-3.5
						V-2H33.7z M36.6-9.8H40c0.1,0,0.3,0,0.5,0s0.3,0,0.5-0.1c0.4-0.1,0.7-0.3,0.9-0.5c0.2-0.2,0.4-0.5,0.4-0.8s0.1-0.6,0.1-0.9
						s0-0.6-0.1-0.9s-0.2-0.6-0.4-0.8c-0.2-0.2-0.5-0.4-0.9-0.5c-0.1,0-0.3-0.1-0.5-0.1s-0.3,0-0.5,0h-3.4V-9.8z"/>
				</g>
				<g>
					<path class="st4" d="M47.6-2v-15.1h2.9v12.5H57V-2H47.6z"/>
				</g>
				<g>
					<path class="st4" d="M57.7-2l4.6-15.1h4.3L71.2-2h-2.9l-4.1-13.3h0.5L60.6-2H57.7z M60.5-5.2v-2.7h8v2.7H60.5z"/>
				</g>
				<g>
					<path class="st4" d="M73.1-2v-15.1H76L82.6-7v-10.1h2.9V-2h-2.9L76-12.1V-2H73.1z"/>
				</g>
			</g>
			<g class="st2">
				<g>
					<path class="st5" d="M-25.1,14V5.4h3.4c0.1,0,0.2,0,0.3,0s0.2,0,0.3,0c0.5,0.1,0.9,0.2,1.2,0.5c0.3,0.2,0.6,0.6,0.7,0.9
						C-19,7.2-19,7.6-19,8.1s-0.1,0.9-0.2,1.3c-0.2,0.4-0.4,0.7-0.7,0.9s-0.6,0.4-1.1,0.5c-0.1,0-0.2,0-0.3,0c-0.1,0-0.2,0-0.3,0
						H-24V14H-25.1z M-24,9.8h2.3c0.1,0,0.2,0,0.3,0s0.2,0,0.3,0c0.3-0.1,0.5-0.2,0.7-0.4S-20.1,9-20,8.8s0.1-0.5,0.1-0.7
						s0-0.5-0.1-0.7s-0.2-0.4-0.4-0.6c-0.2-0.2-0.4-0.3-0.7-0.4c-0.1,0-0.2,0-0.3,0s-0.2,0-0.3,0H-24V9.8z"/>
				</g>
				<g>
					<path class="st5" d="M-17.7,14V7.5h1v1.6l-0.2-0.2c0.1-0.2,0.2-0.4,0.3-0.6c0.1-0.2,0.3-0.3,0.4-0.4c0.2-0.1,0.4-0.2,0.6-0.3
						c0.2-0.1,0.4-0.1,0.6-0.1c0.2,0,0.4,0,0.6,0v1c-0.2-0.1-0.5-0.1-0.7,0c-0.3,0-0.5,0.1-0.7,0.3s-0.4,0.3-0.5,0.5
						c-0.1,0.2-0.2,0.4-0.2,0.7s-0.1,0.5-0.1,0.8V14H-17.7z"/>
				</g>
				<g>
					<path class="st5" d="M-13.1,6.4V5.3h1.1v1.1H-13.1z M-13.1,14V7.5h1.1V14H-13.1z"/>
				</g>
				<g>
					<path class="st5" d="M-7.5,14.2c-0.7,0-1.2-0.1-1.7-0.4s-0.8-0.7-1-1.2s-0.4-1.1-0.4-1.8s0.1-1.3,0.4-1.8
						c0.2-0.5,0.6-0.9,1.1-1.2s1-0.4,1.7-0.4s1.3,0.2,1.8,0.5s0.8,0.8,1,1.4l-1.1,0.3c-0.1-0.4-0.4-0.7-0.7-0.9
						c-0.3-0.2-0.7-0.3-1-0.3c-0.4,0-0.8,0.1-1.1,0.3C-8.8,8.9-9,9.2-9.1,9.6s-0.2,0.8-0.2,1.2c0,0.7,0.2,1.3,0.5,1.7
						s0.8,0.7,1.5,0.7c0.4,0,0.8-0.1,1.1-0.3c0.3-0.2,0.5-0.5,0.6-0.8l1.1,0.3c-0.2,0.6-0.6,1.1-1,1.4C-6.2,14-6.8,14.2-7.5,14.2z"
						/>
				</g>
				<g>
					<path class="st5" d="M-0.8,14.2c-0.6,0-1.2-0.1-1.7-0.4s-0.8-0.7-1.1-1.2S-4,11.5-4,10.8S-3.9,9.5-3.6,9S-3,8.1-2.5,7.8
						s1-0.4,1.6-0.4c0.7,0,1.2,0.2,1.7,0.5s0.8,0.7,1,1.3c0.2,0.6,0.3,1.2,0.3,2H1v-0.4C1,10,0.8,9.4,0.5,9C0.2,8.6-0.3,8.4-0.9,8.4
						c-0.7,0-1.2,0.2-1.5,0.6c-0.3,0.4-0.5,1-0.5,1.8s0.2,1.4,0.5,1.8c0.3,0.4,0.8,0.6,1.5,0.6c0.4,0,0.8-0.1,1.1-0.3
						s0.6-0.5,0.7-0.8l1,0.4c-0.3,0.6-0.6,1-1.1,1.3C0.4,14-0.2,14.2-0.8,14.2z M-3.2,11.1v-0.9h4.8v0.9H-3.2z"/>
				</g>
				<g>
					<path class="st5" d="M9.1,5.4L6.8,14H5.7L8,5.4H9.1z"/>
				</g>
				<g>
					<path class="st5" d="M13.1,14V5.4h3.4c0.1,0,0.2,0,0.3,0s0.2,0,0.3,0c0.5,0.1,0.9,0.2,1.2,0.5c0.3,0.2,0.6,0.6,0.7,0.9
						c0.2,0.4,0.2,0.8,0.2,1.3c0,0.7-0.2,1.3-0.5,1.7c-0.3,0.5-0.9,0.8-1.5,0.9l-0.4,0.1h-2.7V14H13.1z M14.1,9.8h2.3
						c0.1,0,0.2,0,0.3,0s0.2,0,0.3,0c0.3-0.1,0.5-0.2,0.7-0.4S18,9,18,8.8s0.1-0.5,0.1-0.7s0-0.5-0.1-0.7S17.8,7,17.6,6.8
						s-0.4-0.3-0.7-0.4c-0.1,0-0.2,0-0.3,0s-0.2,0-0.3,0H14L14.1,9.8L14.1,9.8z M18.2,14l-1.7-3.5l1.1-0.3l1.9,3.8H18.2z"/>
				</g>
				<g>
					<path class="st5" d="M23.5,14.2c-0.6,0-1.2-0.1-1.7-0.4c-0.5-0.3-0.8-0.7-1.1-1.2s-0.4-1.1-0.4-1.8s0.1-1.3,0.4-1.8
						c0.3-0.5,0.6-0.9,1.1-1.2s1-0.4,1.7-0.4c0.6,0,1.2,0.1,1.7,0.4S26,8.5,26.3,9c0.2,0.5,0.4,1.1,0.4,1.8s-0.1,1.3-0.4,1.8
						s-0.6,0.9-1.1,1.2C24.7,14,24.2,14.2,23.5,14.2z M23.5,13.2c0.7,0,1.2-0.2,1.5-0.7c0.3-0.4,0.5-1,0.5-1.7S25.3,9.5,25,9.1
						s-0.8-0.7-1.5-0.7c-0.5,0-0.8,0.1-1.1,0.3s-0.5,0.5-0.7,0.8c-0.1,0.4-0.2,0.8-0.2,1.2c0,0.7,0.2,1.3,0.5,1.8
						C22.4,12.9,22.9,13.2,23.5,13.2z"/>
				</g>
				<g>
					<path class="st5" d="M28.6,16.9l1.3-3.4v1l-2.8-7h1.1l2.2,5.6H30l2.1-5.6h1.1l-3.5,9.4H28.6z"/>
				</g>
				<g>
					<path class="st5" d="M35.8,14.2c-0.5,0-0.9-0.1-1.2-0.3c-0.3-0.2-0.6-0.4-0.7-0.7s-0.2-0.6-0.2-1c0-0.3,0.1-0.6,0.2-0.9
						s0.3-0.5,0.5-0.6c0.2-0.2,0.5-0.3,0.8-0.4c0.3-0.1,0.7-0.2,1-0.2C36.6,10,37,10,37.4,9.9c0.4-0.1,0.8-0.1,1.1-0.2L38.1,10
						c0-0.6-0.1-1-0.3-1.3c-0.2-0.3-0.7-0.4-1.2-0.4c-0.4,0-0.7,0.1-1,0.3S35.1,9.1,35,9.5l-1-0.3c0.2-0.6,0.5-1,0.9-1.3
						s1-0.5,1.8-0.5c0.6,0,1.1,0.1,1.5,0.3s0.7,0.5,0.9,1c0.1,0.2,0.2,0.4,0.2,0.7c0,0.2,0,0.5,0,0.7v4h-0.9v-1.6l0.2,0.1
						c-0.2,0.5-0.6,0.9-1,1.2C36.9,14,36.4,14.2,35.8,14.2z M35.9,13.3c0.4,0,0.7-0.1,1-0.2c0.3-0.1,0.5-0.3,0.7-0.5
						s0.3-0.5,0.3-0.7c0.1-0.2,0.1-0.4,0.1-0.7s0-0.4,0-0.6l0.4,0.2c-0.3,0.1-0.7,0.1-1,0.1s-0.7,0.1-1,0.1s-0.6,0.1-0.8,0.2
						c-0.2,0.1-0.3,0.1-0.5,0.2c-0.2,0.1-0.3,0.2-0.4,0.3s-0.1,0.3-0.1,0.5s0,0.3,0.1,0.5s0.2,0.3,0.4,0.4
						C35.4,13.2,35.6,13.3,35.9,13.3z"/>
				</g>
				<g>
					<path class="st5" d="M40.8,14V5.2h1.1V14H40.8z"/>
				</g>
				<g>
					<path class="st5" d="M43,8.4V7.5h4.3v0.9H43z M47.3,14c-0.4,0.1-0.8,0.1-1.1,0.1c-0.4,0-0.7-0.1-1-0.2s-0.5-0.4-0.7-0.7
						c-0.1-0.3-0.2-0.5-0.2-0.8s0-0.6,0-0.9V5.7h1.1v5.8c0,0.3,0,0.5,0,0.7s0,0.4,0.1,0.5c0.1,0.3,0.4,0.4,0.7,0.5
						c0.3,0,0.7,0,1.1,0V14z"/>
				</g>
				<g>
					<path class="st5" d="M49.3,16.9l1.3-3.4v1l-2.8-7h1.1l2.2,5.6h-0.4l2.1-5.6h1.1l-3.5,9.4H49.3z"/>
				</g>
				<g>
					<path class="st5" d="M57.3,14V7.5h1v1.6l-0.2-0.2c0.1-0.2,0.2-0.4,0.3-0.6s0.3-0.3,0.4-0.4c0.2-0.1,0.4-0.2,0.6-0.3
						s0.4-0.1,0.6-0.1s0.4,0,0.6,0v1c-0.2-0.1-0.5-0.1-0.7,0c-0.3,0-0.5,0.1-0.7,0.3s-0.4,0.3-0.5,0.5s-0.2,0.4-0.2,0.7
						s-0.1,0.5-0.1,0.8V14H57.3z"/>
				</g>
				<g>
					<path class="st5" d="M63.4,14.2c-0.5,0-0.9-0.1-1.2-0.3c-0.3-0.2-0.6-0.4-0.7-0.7s-0.2-0.6-0.2-1c0-0.3,0.1-0.6,0.2-0.9
						s0.3-0.5,0.5-0.6c0.2-0.2,0.5-0.3,0.8-0.4c0.3-0.1,0.7-0.2,1-0.2C64.2,10,64.6,10,65,9.9c0.4-0.1,0.8-0.1,1.1-0.2L65.7,10
						c0-0.6-0.1-1-0.3-1.3c-0.2-0.3-0.7-0.4-1.2-0.4c-0.4,0-0.7,0.1-1,0.3s-0.5,0.5-0.6,0.9l-1-0.3c0.2-0.6,0.5-1,0.9-1.3
						s1-0.5,1.8-0.5c0.6,0,1.1,0.1,1.5,0.3s0.7,0.5,0.9,1c0.1,0.2,0.2,0.4,0.2,0.7c0,0.2,0,0.5,0,0.7v4H66v-1.6l0.2,0.1
						c-0.2,0.5-0.6,0.9-1,1.2C64.6,14,64,14.2,63.4,14.2z M63.6,13.3c0.4,0,0.7-0.1,1-0.2c0.3-0.1,0.5-0.3,0.7-0.5s0.3-0.5,0.3-0.7
						c0.1-0.2,0.1-0.4,0.1-0.7s0-0.4,0-0.6l0.4,0.2c-0.3,0.1-0.7,0.1-1,0.1s-0.7,0.1-1,0.1s-0.6,0.1-0.8,0.2
						c-0.2,0.1-0.3,0.1-0.5,0.2c-0.2,0.1-0.3,0.2-0.4,0.3s-0.1,0.3-0.1,0.5s0,0.3,0.1,0.5s0.2,0.3,0.4,0.4S63.3,13.3,63.6,13.3z"/>
				</g>
				<g>
					<path class="st5" d="M67.6,8.4V7.5h4.3v0.9H67.6z M71.9,14c-0.4,0.1-0.8,0.1-1.1,0.1c-0.4,0-0.7-0.1-1-0.2s-0.5-0.4-0.7-0.7
						c-0.1-0.3-0.2-0.5-0.2-0.8s0-0.6,0-0.9V5.7H70v5.8c0,0.3,0,0.5,0,0.7s0,0.4,0.1,0.5c0.1,0.3,0.4,0.4,0.7,0.5c0.3,0,0.7,0,1.1,0
						V14z"/>
				</g>
				<g>
					<path class="st5" d="M73.4,6.4V5.3h1.1v1.1H73.4z M73.4,14V7.5h1.1V14H73.4z"/>
				</g>
				<g>
					<path class="st5" d="M79,14.2c-0.6,0-1.2-0.1-1.7-0.4c-0.5-0.3-0.8-0.7-1.1-1.2s-0.4-1.1-0.4-1.8s0.1-1.3,0.4-1.8
						s0.6-0.9,1.1-1.2s1-0.4,1.7-0.4c0.6,0,1.2,0.1,1.7,0.4s0.8,0.7,1.1,1.2c0.2,0.5,0.4,1.1,0.4,1.8s-0.1,1.3-0.4,1.8
						s-0.6,0.9-1.1,1.2C80.2,14,79.6,14.2,79,14.2z M79,13.2c0.7,0,1.2-0.2,1.5-0.7c0.3-0.4,0.5-1,0.5-1.7s-0.2-1.3-0.5-1.7
						S79.7,8.4,79,8.4c-0.5,0-0.8,0.1-1.1,0.3s-0.5,0.5-0.7,0.8c-0.1,0.4-0.2,0.8-0.2,1.2c0,0.7,0.2,1.3,0.5,1.8
						C77.8,12.9,78.3,13.2,79,13.2z"/>
				</g>
			</g>
		</g>
		<g id="Group_10942" transform="translate(-5 5)">
			<g id="Group_10931" transform="translate(0.5)">
				<g id="Group_10930">
					<g id="Rectangle_2419" transform="translate(0 -0.001)">
						<g>
							<path class="st3" d="M-26-30h18c2.2,0,4,1.8,4,4V9c0,2.2-1.8,4-4,4h-18c-2.2,0-4-1.8-4-4v-35C-30-28.2-28.2-30-26-30z"/>
						</g>
						<g>
							<path class="st3" d="M-8,13h-18c-2.2,0-4-1.8-4-4v-35c0-2.2,1.8-4,4-4h18c2.2,0,4,1.8,4,4V9C-4,11.2-5.8,13-8,13z M-26-29
								c-1.7,0-3,1.3-3,3V9c0,1.7,1.3,3,3,3h18c1.7,0,3-1.3,3-3v-35c0-1.7-1.3-3-3-3H-26z"/>
						</g>
					</g>
				</g>
				<g id="Rectangle_2423">
					<path class="st1" d="M-19.4-23.5h9.4c0.5,0,0.9,0.4,0.9,0.8l0,0c0,0.5-0.4,0.8-0.9,0.8h-9.3c-0.5,0-0.9-0.4-0.9-0.8l0,0
						C-20.2-23.1-19.8-23.5-19.4-23.5z"/>
				</g>
				<g id="Rectangle_2434">
					<path class="st1" d="M-19.4-15h9.4c0.5,0,0.9,0.4,0.9,0.9l0,0c0,0.5-0.4,0.8-0.9,0.8h-9.3c-0.5,0-0.9-0.4-0.9-0.8l0,0
						C-20.2-14.6-19.8-15-19.4-15z"/>
				</g>
				<g id="Rectangle_2435">
					<path class="st1" d="M-19.4-6.5h9.4c0.5,0,0.9,0.4,0.9,0.9l0,0c0,0.5-0.4,0.9-0.9,0.9h-9.3c-0.5,0-0.9-0.4-0.9-0.9l0,0
						C-20.2-6.1-19.8-6.5-19.4-6.5z"/>
				</g>
				<g id="Path_36558">
					<path class="st0" d="M-24.3-20.5c-0.3,0-0.6-0.2-0.8-0.4l-1.4-1.9c-0.3-0.5-0.3-1.1,0.2-1.4c0.4-0.3,1.1-0.2,1.4,0.2l0.5,0.7
						l1.2-1.9c0.3-0.5,0.9-0.6,1.4-0.3s0.6,0.9,0.3,1.4l-2,3.1C-23.6-20.7-24-20.5-24.3-20.5L-24.3-20.5z"/>
				</g>
				<g id="Path_36559">
					<path class="st0" d="M-24.3-12c-0.3,0-0.6-0.2-0.8-0.4l-1.4-1.9c-0.3-0.4-0.2-1.1,0.2-1.4c0.4-0.3,1.1-0.2,1.4,0.2l0.5,0.7
						l1.2-1.9c0.3-0.5,0.9-0.6,1.4-0.3c0.5,0.3,0.6,0.9,0.3,1.4l-1.9,3.2C-23.6-12.2-24-12-24.3-12L-24.3-12z"/>
				</g>
				<g id="Path_36560">
					<path class="st0" d="M-24.3-3.5c-0.3,0-0.6-0.2-0.8-0.4l-1.4-1.9c-0.3-0.4-0.2-1.1,0.2-1.4s1.1-0.2,1.4,0.2l0.5,0.7l1.2-1.9
						c0.3-0.5,0.9-0.6,1.4-0.3c0.5,0.3,0.6,0.9,0.3,1.4l-2,3.1C-23.6-3.7-24-3.5-24.3-3.5L-24.3-3.5z"/>
				</g>
			</g>
			<g id="Group_10932" transform="translate(30.25)">
				<g id="Group_10930-2" transform="translate(0)">
					<g id="Rectangle_2419-2" transform="translate(0.25 -0.001)">
						<g>
							<path class="st1" d="M-26-30h17c2.2,0,4,1.8,4,4V9c0,2.2-1.8,4-4,4h-17c-2.2,0-4-1.8-4-4v-35C-30-28.2-28.2-30-26-30z"/>
						</g>
						<g>
							<path class="st3" d="M-9,13h-17c-2.2,0-4-1.8-4-4v-35c0-2.2,1.8-4,4-4h17c2.2,0,4,1.8,4,4V9C-5,11.2-6.8,13-9,13z M-26-29
								c-1.7,0-3,1.3-3,3V9c0,1.7,1.3,3,3,3h17c1.7,0,3-1.3,3-3v-35c0-1.7-1.3-3-3-3H-26z"/>
						</g>
					</g>
				</g>
				<g id="Rectangle_2423-2" transform="translate(9.775 6.491)">
					<g>
						<path class="st3" d="M-29.2-30h9.4c0.5,0,0.9,0.4,0.9,0.9l0,0c0,0.5-0.4,0.8-0.9,0.8h-9.4c-0.4,0-0.8-0.4-0.8-0.8l0,0
							C-30-29.6-29.6-30-29.2-30z"/>
					</g>
					<g>
						<path class="st3" d="M-19.8-28.3h-9.3c-0.5,0-0.9-0.4-0.9-0.9c0-0.4,0.4-0.8,0.9-0.8h9.4c0.5,0,0.9,0.4,0.9,0.8
							C-18.9-28.7-19.3-28.3-19.8-28.3z"/>
					</g>
				</g>
				<g id="Rectangle_2434-2" transform="translate(9.775 14.991)">
					<g>
						<path class="st3" d="M-29.2-30h9.4c0.5,0,0.9,0.4,0.9,0.9l0,0c0,0.5-0.4,0.8-0.9,0.8h-9.4c-0.4,0-0.8-0.4-0.8-0.8l0,0
							C-30-29.6-29.6-30-29.2-30z"/>
					</g>
					<g>
						<path class="st3" d="M-19.8-28.3h-9.3c-0.5,0-0.9-0.4-0.9-0.9c0-0.4,0.4-0.8,0.9-0.8h9.4c0.5,0,0.9,0.4,0.9,0.8
							C-18.9-28.7-19.3-28.3-19.8-28.3z"/>
					</g>
				</g>
				<g id="Rectangle_2435-2" transform="translate(9.775 23.491)">
					<g>
						<path class="st3" d="M-29.2-30h9.4c0.5,0,0.9,0.4,0.9,0.9l0,0c0,0.5-0.4,0.9-0.9,0.9h-9.4c-0.4-0.1-0.8-0.5-0.8-0.9l0,0
							C-30-29.6-29.6-30-29.2-30z"/>
					</g>
					<g>
						<path class="st3" d="M-19.8-28.3h-9.3c-0.5,0-0.9-0.4-0.9-0.9c0-0.4,0.4-0.8,0.9-0.8h9.4c0.5,0,0.9,0.4,0.9,0.8
							C-18.9-28.7-19.3-28.3-19.8-28.3z"/>
					</g>
				</g>
				<g id="Path_36558-2">
					<path class="st3" d="M-24.3-20.5c-0.3,0-0.6-0.2-0.8-0.4l-1.4-1.9c-0.3-0.5-0.3-1.1,0.2-1.4c0.4-0.3,1.1-0.2,1.4,0.2l0.5,0.7
						l1.2-1.9c0.3-0.5,0.9-0.6,1.4-0.3s0.6,0.9,0.3,1.4l-2,3.1C-23.6-20.7-24-20.5-24.3-20.5L-24.3-20.5z"/>
				</g>
				<g id="Path_36559-2">
					<path class="st3" d="M-24.3-12c-0.3,0-0.6-0.2-0.8-0.4l-1.4-1.9c-0.3-0.4-0.2-1.1,0.2-1.4c0.4-0.3,1.1-0.2,1.4,0.2l0.5,0.7
						l1.2-1.9c0.3-0.5,0.9-0.6,1.4-0.3c0.5,0.3,0.6,0.9,0.3,1.4l-1.9,3.2C-23.6-12.2-24-12-24.3-12L-24.3-12z"/>
				</g>
				<g id="Path_36560-2">
					<path class="st3" d="M-24.3-3.5c-0.3,0-0.6-0.2-0.8-0.4l-1.4-1.9c-0.3-0.4-0.2-1.1,0.2-1.4s1.1-0.2,1.4,0.2l0.5,0.7l1.2-1.9
						c0.3-0.5,0.9-0.6,1.4-0.3c0.5,0.3,0.6,0.9,0.3,1.4l-2,3.1C-23.6-3.7-24-3.5-24.3-3.5L-24.3-3.5z"/>
				</g>
			</g>
			<g id="Group_10933" transform="translate(60)">
				<g id="Group_10930-3" transform="translate(0)">
					<g id="Rectangle_2419-3" transform="translate(0.5 -0.001)">
						<g>
							<path class="st1" d="M-26-30h17c2.2,0,4,1.8,4,4V9c0,2.2-1.8,4-4,4h-17c-2.2,0-4-1.8-4-4v-35C-30-28.2-28.2-30-26-30z"/>
						</g>
						<g>
							<path class="st3" d="M-9,13h-17c-2.2,0-4-1.8-4-4v-35c0-2.2,1.8-4,4-4h17c2.2,0,4,1.8,4,4V9C-5,11.2-6.8,13-9,13z M-26-29
								c-1.7,0-3,1.3-3,3V9c0,1.7,1.3,3,3,3h17c1.7,0,3-1.3,3-3v-35c0-1.7-1.3-3-3-3H-26z"/>
						</g>
					</g>
				</g>
				<g id="Rectangle_2423-3" transform="translate(9.775 6.491)">
					<g>
						<path class="st3" d="M-29.2-30h9.4c0.5,0,0.9,0.4,0.9,0.9l0,0c0,0.5-0.4,0.8-0.9,0.8h-9.4c-0.4,0-0.8-0.4-0.8-0.8l0,0
							C-30-29.6-29.6-30-29.2-30z"/>
					</g>
					<g>
						<path class="st3" d="M-19.8-28.3h-9.3c-0.5,0-0.9-0.4-0.9-0.9c0-0.4,0.4-0.8,0.9-0.8h9.4c0.5,0,0.9,0.4,0.9,0.8
							C-18.9-28.7-19.3-28.3-19.8-28.3z"/>
					</g>
				</g>
				<g id="Rectangle_2434-3" transform="translate(9.775 14.991)">
					<g>
						<path class="st3" d="M-29.2-30h9.4c0.5,0,0.9,0.4,0.9,0.9l0,0c0,0.5-0.4,0.8-0.9,0.8h-9.4c-0.4,0-0.8-0.4-0.8-0.8l0,0
							C-30-29.6-29.6-30-29.2-30z"/>
					</g>
					<g>
						<path class="st3" d="M-19.8-28.3h-9.3c-0.5,0-0.9-0.4-0.9-0.9c0-0.4,0.4-0.8,0.9-0.8h9.4c0.5,0,0.9,0.4,0.9,0.8
							C-18.9-28.7-19.3-28.3-19.8-28.3z"/>
					</g>
				</g>
				<g id="Rectangle_2435-3" transform="translate(9.775 23.491)">
					<g>
						<path class="st3" d="M-29.2-30h9.4c0.5,0,0.9,0.4,0.9,0.9l0,0c0,0.5-0.4,0.9-0.9,0.9h-9.4c-0.4-0.1-0.8-0.5-0.8-0.9l0,0
							C-30-29.6-29.6-30-29.2-30z"/>
					</g>
					<g>
						<path class="st3" d="M-19.8-28.3h-9.3c-0.5,0-0.9-0.4-0.9-0.9c0-0.4,0.4-0.8,0.9-0.8h9.4c0.5,0,0.9,0.4,0.9,0.8
							C-18.9-28.7-19.3-28.3-19.8-28.3z"/>
					</g>
				</g>
				<g id="Path_36558-3">
					<path class="st3" d="M-24.3-20.5c-0.3,0-0.6-0.2-0.8-0.4l-1.4-1.9c-0.3-0.5-0.3-1.1,0.2-1.4c0.4-0.3,1.1-0.2,1.4,0.2l0.5,0.7
						l1.2-1.9c0.3-0.5,0.9-0.6,1.4-0.3s0.6,0.9,0.3,1.4l-2,3.1C-23.6-20.7-24-20.5-24.3-20.5L-24.3-20.5z"/>
				</g>
				<g id="Path_36559-3">
					<path class="st3" d="M-24.3-12c-0.3,0-0.6-0.2-0.8-0.4l-1.4-1.9c-0.3-0.4-0.2-1.1,0.2-1.4c0.4-0.3,1.1-0.2,1.4,0.2l0.5,0.7
						l1.2-1.9c0.3-0.5,0.9-0.6,1.4-0.3c0.5,0.3,0.6,0.9,0.3,1.4l-1.9,3.2C-23.6-12.2-24-12-24.3-12L-24.3-12z"/>
				</g>
				<g id="Path_36560-3">
					<path class="st3" d="M-24.3-3.5c-0.3,0-0.6-0.2-0.8-0.4l-1.4-1.9c-0.3-0.4-0.2-1.1,0.2-1.4s1.1-0.2,1.4,0.2l0.5,0.7l1.2-1.9
						c0.3-0.5,0.9-0.6,1.4-0.3c0.5,0.3,0.6,0.9,0.3,1.4l-2,3.1C-23.6-3.7-24-3.5-24.3-3.5L-24.3-3.5z"/>
				</g>
			</g>
		</g>
	</g>
</g>
</svg>
